<mxfile host="app.diagrams.net" agent="Mozilla/5.0 (X11; Ubuntu; Linux x86_64; rv:109.0) Gecko/20100101 Firefox/115.0" version="24.8.4">
  <diagram id="C5RBs43oDa-KdzZeNtuy" name="Page-1">
    <mxGraphModel dx="439" dy="751" grid="1" gridSize="10" guides="1" tooltips="1" connect="1" arrows="1" fold="1" page="1" pageScale="1" pageWidth="827" pageHeight="1169" math="0" shadow="0">
      <root>
        <mxCell id="WIyWlLk6GJQsqaUBKTNV-0" />
        <mxCell id="WIyWlLk6GJQsqaUBKTNV-1" parent="WIyWlLk6GJQsqaUBKTNV-0" />
        <mxCell id="zkfFHV4jXpPFQw0GAbJ--0" value="Element&#xa;&lt;&lt;enumeration&gt;&gt;&#xa;" style="swimlane;fontStyle=2;align=center;verticalAlign=top;childLayout=stackLayout;horizontal=1;startSize=20;horizontalStack=0;resizeParent=1;resizeLast=0;collapsible=1;marginBottom=0;rounded=0;shadow=0;strokeWidth=1;" parent="WIyWlLk6GJQsqaUBKTNV-1" vertex="1">
          <mxGeometry x="40" y="255" width="160" height="45" as="geometry">
            <mxRectangle x="230" y="140" width="160" height="26" as="alternateBounds" />
          </mxGeometry>
        </mxCell>
        <mxCell id="zkfFHV4jXpPFQw0GAbJ--13" value="Mob&#xa;" style="swimlane;fontStyle=0;align=center;verticalAlign=top;childLayout=stackLayout;horizontal=1;startSize=26;horizontalStack=0;resizeParent=1;resizeLast=0;collapsible=1;marginBottom=0;rounded=0;shadow=0;strokeWidth=1;" parent="WIyWlLk6GJQsqaUBKTNV-1" vertex="1">
          <mxGeometry x="280" y="120" width="160" height="190" as="geometry">
            <mxRectangle x="340" y="380" width="170" height="26" as="alternateBounds" />
          </mxGeometry>
        </mxCell>
        <mxCell id="WQaWYwOavrE4UbBEG4pA-8" value="String : name" style="text;align=left;verticalAlign=top;spacingLeft=4;spacingRight=4;overflow=hidden;rotatable=0;points=[[0,0.5],[1,0.5]];portConstraint=eastwest;" vertex="1" parent="zkfFHV4jXpPFQw0GAbJ--13">
          <mxGeometry y="26" width="160" height="24" as="geometry" />
        </mxCell>
        <mxCell id="zkfFHV4jXpPFQw0GAbJ--14" value="int : PV" style="text;align=left;verticalAlign=top;spacingLeft=4;spacingRight=4;overflow=hidden;rotatable=0;points=[[0,0.5],[1,0.5]];portConstraint=eastwest;" parent="zkfFHV4jXpPFQw0GAbJ--13" vertex="1">
          <mxGeometry y="50" width="160" height="24" as="geometry" />
        </mxCell>
        <mxCell id="WQaWYwOavrE4UbBEG4pA-5" value="int : ATK" style="text;align=left;verticalAlign=top;spacingLeft=4;spacingRight=4;overflow=hidden;rotatable=0;points=[[0,0.5],[1,0.5]];portConstraint=eastwest;" vertex="1" parent="zkfFHV4jXpPFQw0GAbJ--13">
          <mxGeometry y="74" width="160" height="20" as="geometry" />
        </mxCell>
        <mxCell id="WQaWYwOavrE4UbBEG4pA-4" value="int : ATKSpeed" style="text;align=left;verticalAlign=top;spacingLeft=4;spacingRight=4;overflow=hidden;rotatable=0;points=[[0,0.5],[1,0.5]];portConstraint=eastwest;" vertex="1" parent="zkfFHV4jXpPFQw0GAbJ--13">
          <mxGeometry y="94" width="160" height="28" as="geometry" />
        </mxCell>
        <mxCell id="WQaWYwOavrE4UbBEG4pA-3" value="int : range" style="text;align=left;verticalAlign=top;spacingLeft=4;spacingRight=4;overflow=hidden;rotatable=0;points=[[0,0.5],[1,0.5]];portConstraint=eastwest;" vertex="1" parent="zkfFHV4jXpPFQw0GAbJ--13">
          <mxGeometry y="122" width="160" height="22" as="geometry" />
        </mxCell>
        <mxCell id="WQaWYwOavrE4UbBEG4pA-2" value="Element : element&#xa;" style="text;align=left;verticalAlign=top;spacingLeft=4;spacingRight=4;overflow=hidden;rotatable=0;points=[[0,0.5],[1,0.5]];portConstraint=eastwest;" vertex="1" parent="zkfFHV4jXpPFQw0GAbJ--13">
          <mxGeometry y="144" width="160" height="22" as="geometry" />
        </mxCell>
        <mxCell id="zkfFHV4jXpPFQw0GAbJ--15" value="" style="line;html=1;strokeWidth=1;align=left;verticalAlign=middle;spacingTop=-1;spacingLeft=3;spacingRight=3;rotatable=0;labelPosition=right;points=[];portConstraint=eastwest;" parent="zkfFHV4jXpPFQw0GAbJ--13" vertex="1">
          <mxGeometry y="166" width="160" height="8" as="geometry" />
        </mxCell>
        <mxCell id="WQaWYwOavrE4UbBEG4pA-1" value="" style="endArrow=none;html=1;rounded=0;exitX=1;exitY=0.25;exitDx=0;exitDy=0;entryX=0;entryY=0.5;entryDx=0;entryDy=0;" edge="1" parent="WIyWlLk6GJQsqaUBKTNV-1" source="zkfFHV4jXpPFQw0GAbJ--0" target="WQaWYwOavrE4UbBEG4pA-2">
          <mxGeometry width="50" height="50" relative="1" as="geometry">
            <mxPoint x="250" y="420" as="sourcePoint" />
            <mxPoint x="250" y="240" as="targetPoint" />
          </mxGeometry>
        </mxCell>
        <mxCell id="WQaWYwOavrE4UbBEG4pA-6" value="" style="shape=image;verticalLabelPosition=bottom;labelBackgroundColor=default;verticalAlign=top;aspect=fixed;imageAspect=0;image=data:image/png,iVBORw0KGgoAAAANSUhEUgAAAeEAAAByCAYAAABkz2lXAAAABHNCSVQICAgIfAhkiAAAABl0RVh0U29mdHdhcmUAZ25vbWUtc2NyZWVuc2hvdO8Dvz4AAAAodEVYdENyZWF0aW9uIFRpbWUAbWFyLiAxMiBub3YuIDIwMjQgMTc6MzY6MTR5VPq/AAAgAElEQVR4nOy9f4wj53nn+VEsLUuGFZYTj1lK7O3yRlLXLGw3hdghhVhLap2g6VwOpJAApBAfmroAOxQS7FBAALEXG4B/7EUcXC5i73lhNuBD2DkvROLkuAjIURGQ42LiRCQ8iorCCFOUpaCIlePiWraLtpQUs9LW/cHumZ5ucvrHdDfZPfUBZjBDFt/3eaveep+3nrfe53uH53kePj4+Pj4+PifOz8zaAB8fHx8fn9sV3wn7+Pj4+PjMCN8J+/j4+Pj4zAjfCfv4+Pj4+MwI3wn7+Pj4+PjMCN8J+/j4+Pj4zAjfCfv4+Pj4+MyIO2dtwDS+9a1vYRjGrM3w8fHx8TkiVlZW+Lmf+7lZmzFX3DGvyTp+5Vd+BVmW+djHPjZrU04Vg8GAv/3bv+XRRx+dSf1vv/02f/3Xfz2z+vfDrM/RaeLrX/86v/zLv8y//Jf/ctamHIp//Md/pNls3jbX+tvf/jaBQIDPfvazszZlF6+88goPPPAA6+vrszZlrpjbJ+EPfvCD/N7v/R6xWGzWppwqLl++zOuvv86f/MmfzKT+V199lW63O7P698PLL79Mr9ebaxvnhVdffZUnnniCz3/+87M25VAMBgNUVb1trvV/+A//gXvuuYfV1dVZm7KL//yf/zNvvvnmrM2YO+bWCR8roy4bxSpt28YR4hTKF1gKAPRprpVRTRdBjpPNpzc/Pzv0m2tUNAPLBlGSEAVwXZDCKbIrEUL0aaxV0E0bBxElmiW/skQA6DcvUVZNXDFOtrBCJHir1ozoXMqix6s8Fbl+ovvNNSq6PfknYpRsXsYo12hbmzYqCTIXl1mgT2O1hGqDFM1SuBDhlk2caOOQ1noJzZpiYjhDPgXqfm0c9WlWKuguuLZIOC7iuAkuphdu2frpzeqykS+hOnGKz15g6bBlbN1HSMjSZmeSo6QyKSKh+b95+s1LVDQbx3URBBFBcHEdFxeBcLbEhYhF/ckiNStK4esXiczQ1tEIAkd0SofdOpWKhilIKJKIoCSIuxqG8hQrh+kMR2nc7YY3p8RiMU/X9WOswfAK8bCnCHhSquZZ1z53vGqu4LWPsebj5Dvf+Y73mc985qbHOLWEB2GvZG59oHs5eXwe7PEHnpoRPcSMpzrbf2l65WzJM3cWuI1ut+t9+tOf3p+xTs1LiXhiquZdr8b11EzUy2mW53qep+ckDyHlqa7nubbuFaIpr+Z4nucZXl7GI1G9/lvX8Cq5nFc13JtWe/nyZe+Xf/mXb8HGtpePZrya6XqeZ3gFBY94xbM9z3OMspdIlDf70/5sNAphL1Gxtyr09HzYUwrG/uy7FbSsJ0o572Z32ec//3nvxRdfvMkR4zYKGXXz/65nlqKeIEa98s06yglh27YXCoVuesz4fpC9/LWb3vHapbgX3bpB2nlPFjKeOq2Ak8DVvFxubwtWV1e9P/qjP7pZQZ5RjnuSFPdKun3tU6dd8uKi6GW1wxjneLVcfs8xc21tzfv3//7fH6aCM83t/Xa0kkdVswhqltSTHYabHwubf24bglHiYQFbq9EeAQRJ5rPIjkqp2r922KhVwYhnWTyiavs1FUeRcLQKtWvVODhShvzyAjfMqwMQCMXIZ2VsZ1JhDVbzGkrxy6wcYfhioo0jB+J50ou76wku5cgpNhOf4yfaOKDdNrEMk8G4BGKFAin5tPbAAIvxMKLTpqb39z587ujT6bhE8gWitjVrY67Rr5XRJvX7g9Irk823UYo1noqFrn0cjDxFpRA+VJGjXoWy7h6Bcbcnt2c4+hoC0nIFrWIRzaXIhNu8sCLecMSos0o8Z5LKJ7BrNZxMhcqKjLGWIlOwSZRzyK6DpVaxUiVygoXltKlWoaA/SzoEw84auZJBOBHF0XXIlXl62w0wc0YmbdNFjKeIbvmGSJ58tEK+XKZz8RkiDFFrkCkfld09au0olWqYjFKgXOlx4elFIESqmJ0aRg5li2R3fOZ0LpFKqST0lzja0zrFxkCcYmGaow+QKBZ2fTrdxhDxhEK+EEeqyUSjceLZPIULi8CA5mqGbNlEzmTJhEUMTcNNlaleWCLAiO5GjqImkYiLtDWLVPnLJBf6NJ7MUyNBQjZQjSilygqLgQGtS3nKVphEWMDR27jEj+ZUuTACGPbRqjpuOEcxtRlOHzZ5Il7EyeaIGjVUIUfty0lC/QZPZLJUxQLVhIBt61Q1iZL+ZZaDMGg+SbYCiTjoqokog0GBdsmlmKvgxFOELQ1dzlO5eKtLDy621aVjlimaeV6ILFMqjSYcN/nciu1VMpkyZCqkJAfXrFF1s5RSLpZto1c15JLOM+OGsbrLfhH10RR5I0yxGAXHQqsaxCsaObdCvqRjIbC6ahLNPUXykCsVfa2GgUQhuvtGWczVKAlbbSygCnHisoOuWSRKZdJSm7ViGymu4JpVak6RF3I2xXyFtiVSXl0lmshzcZ7GttPArB/Fp3Ei4ejcVojR8fSc4gmC4uV0y6vmCt5WMNA1Kl6upHm253mumvEEMeuNIzaqlxEEL1oeBx7tStRD3AqVtr28LHiJquN5ru5lJcFL1DYDkmbJCyt577iCjfsPR4tePFf2yuWyVyoUvFK17dk7j1NTnojoZVTH88yyly3tbfV+w9GunveyVdvzPNurxgUPOefpE6LI18LRu77ZDPVKYS9TKHgpGU+Ilrw9ItGe5+0/HL0/G28MRx/ORsczqnkvE1c8ScADwQtvnWu74sWFbaFSo+ApW/83Cp4iRL3NLujZlbgnZTXv9XLUE+St8KDrqRnJS9Qcz6mlPFHKetpm/W4t5QlHFI4mnPOqtapXySc8WYp6pfa2dQxH98q5std2PM9zquP2bDbPLIU9rtmkeVlR9DKa53me6ZWUrfvG8WoJwVNKxvjfKdETs5o3bobu5eTr52An+w9Hi16iVPOq+bgX3bkUsC0cbU05t57neNW4cH3Zwih4CpKX013P81xPywiemNFubn8750mC4o2rH7dZ3rzwelbcFvKfzl7haKOgeKB4hZssFViVuCco18dAsxT2hHDZM/WsJ0dzXlVre5Ztem1jfI3dWsITpJwfjj4kt/mT8BZBYl/WqFhhsqkURjRBZesrUUa2apQuWYRtG1yR64EXAUVZuPZvQVJQguN/A7i4YBsYNghtlToCuAKJVHQOwt0i4exFLt7kTZNgskBWVqmUKmxETeKFi0dU9xCt2sYWSqya4AgSglWjopWIJQ/4PKPkqTy9gpCCaLxIphCl/UzsCF7IOikbh3RbFsrKMzy78gwwpPVklERVo/fU0vXQ/1aHUcLIlDCMAUPBwHRdDK1OXQSXKJm4RE8zcZFpb9SxBBcnnCEhgakaOGIGKbCjzCNAUBKspJOQToAhkcuWSF19emy/ICGJBpXiGoZi4rgu7rbQqiCHUQJbBrm4LoBMPCFT1XR6YdBshVRcAQzahoOg6NTqDgIuciaFfMstEFHiaVYiCmJjHA1rra7iFp9medtRZnvyub1WiqxwbQgQZMLK5skWBFzXBcw97JcJK5sFCGz+5uhQomFENCxrBDuXU7p16kIaUTdwxRRbMUFJEnFNHTNaphzNUcjGydoiiYrOC0u3fqfd7vhO+BoLrNQ0jHicshnf/KxHOZWimmhz9aklRg2dXOWAN4UUJiyBFU6QTo/DNPFOh9OxghIhn49SyRcoKhrmUUWZBiqqVEZ9OjJe9x1lQIlSLasMkiscqJpNRxKIPE2t3Caay5CLGzybvEVjT8xGB71cxgr/KWPfHiSWiiMZEuKkskwDy5WJh0MEhTCKoKHE06QXARKEOzaioyC0RaIr6fHbvKMoHRPksIJQs7nm/46lE4qIogBtE2MEsjPg26UEWaOA9a0LhIYb1PLqPsoJ4AoJinkJ24aC/gqLQQCFaFikKkTJpJPjaxPt0DmyCcUSySQwbFI1JYo7/JQSnXxutxBusGOSUYe1XxiH/EcNyhWFpy4e7s2MQLJIMa5RLFXpL1/gelR7SLNmIBbSKFEZoW3hAAuAbTsIchTZ0GhnVK4+E2DYvUQqp9K78BTyZqPdUZ+NcpvUU+kjmATfPnygWCwWZ23EJKrVKo888giyLB994aMu9T8sU9O/zZXROT4VvW884AkfI/GF++nqbxPP/hoSd/F+/9s837a46+4fYrz1Du6VNpcHMh/53rPUn38D272Xhz475Lk/rqJb73Dn/Q/xid6X+JJq8NbbEg8m0mQT96B/6Su8/MMf8lrrv/Ki+xl+MywdywzoH/7hH/jGN77Bv/t3/27i9/3mGuXqi1y23uE9933u+sRnCUvTLRHPn+O1qsnnvvR/sixNPewag8GAr3/96zzxxBOTv2+t8Yd/UKbtStz3cJT7PgSDb34N7XKbK5cNzHfv4t5PfQb5hw3W1jfQ9DamDe+9O+TNH57js5/8CHeOutT/rzLPf9vEdt/jvfc/zP3R+7jzex10rY2u6bz5w3Oc/zWFj0yw4fvf/z7PP//81HO0Xxvvfnmd/7L+PHr7CvY740FocNenCH9MGPexfdko8cZGBfXKa3S7Pd58rcV/+apFqvQf+bx0J7z7Mhvl5zHfuZu7R13W/1hF/P2vUP6tjyFID/PrH79M5Ustfjjs0fqvKm9/8jf5/G/9Jp/qf5U/bnyPd7/3N3ytZiIlPs/Srz7Mp96sUfnmu9wxfBmt9hzalbdwP/4w/+uU/vhnf/ZnPPzww/yrf/Wvdn+5rY1vue/x7h3n+NRnfgn57jd5/nkd851zvK1f4RfjH+Lv1DZv33MX3zPexnW+jW7cxac+OeS5//urtN96hzvPP8y5l8tUnr+C7X6cz/56mI9cWSXxxS/x3HNf5auVDb7x8vuc//UYy4mHGKplav13Gbz8Nf6rLvBryU9OnLS8++67VCoV/uAP/mDite431yhVnqf9hgPvDXmz802+8bX/h0t/UESXf5/ib7/PN/6PL1EzbNyPP8gXL2QJTzi3515ep1R9kTfefo/7H76fXqXCc5ctHPFBHr6nxR9XVMy33+PjD/02v5P53AT776L5hxXUKzbvSJ/iofdf5I+/ovGG8x6feDjF5z72PZ5/Tuettxyk3/xtPjPlnv3mN79JIBDg4Ycfnvg9fIToY4/yiStl/uDSN3i59z2+91qLr9VfRPhigd9aEBAffISPX/kqlda7jPpf40vqnfz+V8r8L2+V+d/+uM377w+xTZN3PvdFVsIf4c4P38FrNZUr7ts4UoJkeNJdB51Ohx//+Md84QtfmGLbbcqs4+HTOP414YPgeu4+1hr3Lsb1jqKYm7GfNeEDc4DGH2iL0ow40Balk2Dr9LqOZ9vOjX1ka03Y8G5+HaZ8N+0n7ubf7h7Xdu814akGec6OtuxV1w04qpcJp7yqYXqWZXqmoXuVlOxFS9sXf/e+L/ezJnxYbn1MOKJxZRt7b1HaYYFje7Yz3YiJ9rnOocYxf014Mrf3FqV9EziafeiBAKdyO7u/Cf942Tq9gSChUHBbHxnS09vYroupdRjc7DpM+W7aTwKbfweO7doGCN7QFg5WlyATlRx0w8ZxwXUsDFcmFd8ejjmi+/KQ3Hrds7UfIBAMEQpON2KifYHg6RzH5hR/TdjHZ24RkKJFNKsICJPXiM8qgSUuvvAthv0elu3ginFK6go38Rc+PqeSuRVweOSRR/jgBz/IvffeO2tTThVvv/02r776Kv/23/7bmdT/ox/9CMMwZlb/fpj1OTpN/OVf/iWKovALv/ALszblUPzTP/0TL7300m1zrS9fvsxdd93F0tKhEpEeK6+99hqf/vSnfQGHHcztk/CPf/xjfuVXfoUHHnhg1qacKizLotvt8tBDD82k/rfeeovvfOc7M6t/P/T7fQzDmGsb54W//du/5V//63/N+fPnZ23KofjJT37CCy+8cNtc6+9///sIgjCX7f3Hf/zHWZswl8ytExZFkd/4jd84ARWlIY3H81De2iKyfwatNYpVgdyfHjIB/jFw+fJlNE3jd3/3d/f9m2Gvg2HZIMeJLW6dhCH9ronlCCixpX1vyXn11Vf58z//8wPVfxPL6LVMBEVBdC1MVyayeOubH15++WX+4i/+4ohsPCpGDDombmSJY5RtODDPPvssX/jCF45HRWnUp6O3sVGILu+/jx2EwWDApUuXDnGth3SbKprWRkiVuBgLjj9rVKnpNnIqx4XY+EoNWhtojoQsgmPZiImVzaxoe5eREtqoahtTVIgqEoLrYlttTCnLM4dQUnjzzTe55557Dt+3B12abRNXipKIbKWOHTHoGZi2ixSOcdhb8N133/VVlCbgv5g11FF1jYo23PvYHYRiKRS7PTlP8Clh1LpE0ZCJLcdxinEebw6BIc3VIoYcIRa2KT9Z38xrfNJYqMUsiXiCTMlAkM7o7sNhl2a9Qi5b3MzdfTvQo6laSPE0cbFK5pE1erM26QaCLC2nCMsOtVyOxnDzs2SGaDRxzQH3Nx4l2w6TSS4Tiy2TzITRso+y0d9fGaFImriooztx0skkyXSaC0/lCdvGyd9zgxZ1QyCaTCG3c8RXO4yAfr1A1Q4TiykYxVVaBx8qfW7Cbe+Eh22XVDGOUVW5LfuWICLgAkEkycU0HejXKJlREkEguEzcqVCd0Qip5DWuXn2JF768wplNzhNcYjmdIn47vXnVUymW2jgBCEZyJJwKle6sjZqAkqeadyjkGptOUUAQNzNrDOvkiwK5/NL1t4UDSxRyUCw0ro8nNytji61rPxgwYIFUVD7xyf1QK1FUbQQCLGUziNUKOl0qFZdoLACESIRNSupspuRnldvcCQ/RHYlEJkvcrLG9b/Wbqzz6hSfZaG7w5GOX6AD9xhpr9SatxjprjS2FGAez2aDR3GD1yTrjT0d0N9bYaHZobayx0R1NLG8eCEQu8HR6gVG/Qc1OUcougNXGEsRrA4so2hjmTYs5NlzLoNXp0Go06d02T4m3AYt5VC03XsYZ2ViuTHgfyWBmweKFCgWnQK5+o/MZtVV0cSvl5nWCShRRV2nvo4wtXNtmMOjTKtcwgGAsduJLXMFMFb0UG9/3toktKcgjE9MWruX+CkoCVts6YcvONre3Ex7ouFKUQCBONm5S1a7fIAvLWaKOBdEViuUs4f462apIJr1MLCxiWfZYNcZ1QEmSXM4QtqroQ6BbJKcrZJYjxDIK7VINYWd5s2nxZIY9DNMd54h1AcfdlXHPdWfhAWXCiTixSISYYpDPNW/PaMWZJEAoNA5t9Kpl7HyZlbkV31lgpVLALea4wYc6Dq4g7E5OKWx+d8MtM6WMa2XZWJaJZc9wcSsQYnxJBtRLBplKnkXXxeXGNh51PuvbndvaCQ/aFpat0WhoOJKCWVVvXIcRJeQgBEMhaGtYkjx+eWQhzTMXN3MKIyFfe5NmnHx+0G7j4GB0OnQMgURGGXfibeXNzXbH0YhRcJHIcppcWCeTqzMUxRsHFhcEcQYWDyycLUtkBUGr3fB04XP6GXbWUcUStQtHpVJ9TCysUC1AMVvF3vRBASWMbJlYO4+1TGwluusJeVIZWwhKmEhkmZViFgVg0KE1kyWgEb16FSdX46lI4Npy1Za5I5fdoXSfW+I2dsID2m6UfDpJMpkkXSyQsm4MSbNtBhhQFETbvvYkNhoMpj6ViYqCKEiEIxEikRiJqLyrvPlgwHpCIlXfbIkAru3gKFFkZ6utI2xHIqqcvHVDvUxpK/Tl2DiixJxGLH0OwajfRHMTPJVeJNBv0pyvN7N2EVqpUBTKlPTND5byFMI6lcb2kWBIo9ImWsgyaVqxq4ydLCyyAAx0A2cGnX3QUrHCeS5EggxbTToBhajk4Gw+1Tu2gzKLweAMM7dblI6VUZdGsUjJiCLFI0RCMDRtXNGgXFhHLmRRbJW2ZWDXO8jpCKGlApV4gVJdJiM7WK5C1FJp2xZmo0tYNtEtG0ftkLpQomQUKTcEEpKLhUzY3FHerM8BACFSxTICNoO+QbUG+XKWhRAU4wVqnQQpQUUPFynOYN9MMJEnqzv0Bz3McptopTw3W8GOlGGPpqai2xZirYEcTxBZmJtYyfEwbJJLZNERKQKuG6ZsLu/1qxNkSLdeolyxsQRp823oEOlKmXZ165gQK7UabrHAmlAgE3YxamW0eJVqOrSvMgadOqpuY6NSVxQE18WxNCqqSDl9si0edZ4kkVFxxSLg4soF2rFlcgWJYq1HOGFTM1MUS2f1DckZMevk1dOYLwGHbbiOd5N85zuOPfoE7XtxKAEHx/IMw/TsHba6tumZ1sEacOQCDq7jmRNsuxXmTsBhjjm8gMN8cJwCDjfgWJ5pWp5z/DXdlIMKOOwbx/JM074lARpfwGEyt+eT8K0QCO5fK/O0CDYEF5iU5S4QWpwYUjtRAkEWz+zeJJ8zQ3Dh0EksTgVnvX0z5DZeE/bx8fHx8ZktvhP28fHx8fGZEXPrhO+44w663XlMoTPfXL16lQ996EMzq//111/n537u52ZW/364evUq99xzz6zNOBW8//77vPLKK7M249D84Ac/OLXiE4fhpZdeotVqzdqMifzVX/0Vr7766qzNmDvmdk3Y87y5lOOad86fP88777wzs/ofeOABfvSjH82s/v1w/vx5fvrTn87ajFPBBz7wAR588MFZm3Fozp07x9WrV2dtxonx0EMPze0E89/8m3/jCzhMYG6d8N70aW3UUNsOciJDNilh1WtUdQspmiG7EiHUb7FeUbGkFLmLUdymDvFlFvfzttSoR6NcQpeLPJOesj9n1KNR0bAlGQkXV1KQLBNxJX2qttIcpYrSEVt2LCpK88GAbsdBiSxOeHnvLLf7RkaDHoZpgxSeszaO6DWrVFUDwimy2WVEY4NqrY0jx8lk0ywJPZqVKpqtkPnfozh/p6HrNlI8TuIRGftbGqpukyg+zXIIGPVoVqtolkQi+xiy9QKq2sYJx4lK4DgughwnFVuY0Qud0/rd0ago+UxmbsPRe7NALBPG0QzE6BJBQiylE0htDTu8uQ93IUYiGiWVi7GAg6lpGPvNChdYJBkXMa0pKdpGHVYTBexEjgvpsfpJWmpTLOkcLKlbl9YMZUl8FaWTZ9hr0dgokC3oOBOPOJvt3smwdYmC6qLEJNqFAs25yg0eYHE5Q9hSsaQ4iwEIRVaIuxo60bGYSGCR5XiUeG6FyP2LLKdlrJqJnFpm8aOLxNIKimOQz26Mc8oHFlnORolGcywvfpTF5RSSpeGE0ySTaVZWMoStIpnV1ozSs07ud76K0vFyip0wEIiTiZvUruV8dhElF622tZY8wBIUIgGAEMlnnmHaQ+1B6RZzqOEiF7Y/Vi9mKaTkA5Uz6tSoTXP0J4GvonTiBBdjJFNx5JsccxbbfSMdigWLVHaJIDKpYoHo3O3nC5LIhGnX9HGeeEa4soSlamzJt/QckfDOMeVaOwSkbJWSWCK7vvmLgHiTFLABFldKpIwcxc5sZiS7+52vonTcnG4nTIB4JopZ08Yzx56NnM8gaDW6AEMTpM3AcL/F6qOPcKkLjHrUn3iERy81aDSaNC49ydpWp+83Wd9o0Gq1aOrmlKfaHppmocR3pm8LEM+Pc78OWhvUmy2aG5e4tKW4NGhRb3TodjvUn7xEc9ihWlbRdZV6ozN+2hw0WVtr0Oo0WF9rMmBAZ+0xHnl8nWZ9lceePFoRA19FaT458+3uqmiCiKu3aDVUDMT9778/QYKpDEq7ij4CRgZueJzedjzv72Mjc9N5vRAiWSkhlbNs+eGbE0JRXLTabG64Xf3OV1E6dk65E4ZAPEvUrKEOoWcJhJezJNCo9WBouIhbi7MLMTKKME6cHlgknZKxLJFEcplkQkCtGUCPSzkVOZMkFouxPFVbzR0LDQm7Z7SBUIggYLV1HDnG8koUq1yhC4zaNWoWSEqEdC6BHIyQzYSRoynSyQghBtRzZUgliUWSJKhQ6oSIZOIIpouSLlAuxI9+sPJVlOaM26Ddto1tuYjxGLFkFKuwJXo/ZwQTZJQ2NX3EyHAQogkyCYuaOoC+xTb1lpuUkaRSliln1+iN9o56CYKA40xeqDheJvQ7X0Xp2Dn1TphAnEzUpKa2sASFEItkEqBVWxiudNMXpERZuh45cl0Y6GiOjLz1oTBNbkEhqoBt7Q7LDLtd+kA4lUJoN2i2TBx3rEISSBbI2iVS0fM8VDQmlGuitV1cq0On08FWMiS25gGyjESQUOiIY3a+itL8cTu0WxSRZGXzXpOQBI3aXDYyRCKjoNc02o5AOBggmklg1VRa5v58MEBwuUxZrpArm9z8pZERtjUjkYRJ/c5XUTp2Tr8TJkAiE8UoVXHl8Tu8S5kEbq2IKR7wHWVRQcGe8rLMjjqLBdxalRuXSocYlotEi3xWRcokWY6FkQSg1+NKy0Asfp2XXrlKLapT3b4NetCi1VOIhgVEJUIkEiGyHCcsbK/1qPFVlOaJ0XAcbbgt2q3ECeNs3msurishiTO2aQqhRAZFK6ISJggEohniVpmKI908FI27zeEGWS6XkatFajdzwkOVqpWimDn5/QgT+52vonTsnAEnDIFEhrgcvv6CxFKGlKyghLcd1G+hGRam2mEw6tHUTOy2Rqvfp6UZWKZG045SLEqo6y26vQ4NzcTSqrQmrOUElp5CLUDpiTUa3T79Xodmo40YjxBAQpFczHaXTtNCEG3UtoVra1SrHXr9HpYQJ6VAIDx+o7vVdhDlEBcqWazyBq1ul07DwBYGdFQdy9LYaPU52qDwWEUpI9kM+i0q11SUMhTjBrXOgEG3ih4ukp2VipI4VlFqlttEK4VTtfVrGqN+i0ZNx7J1ao0WvSEwapGPZqgPz267byCYpJi1UZt9+p0qulKmEJm1UVMIJciEZcLRzYWgQJRMXCIc3pZZfdijuaFhYqFtNOn99x7NSxXKlUs0txb1g8uUK1lkAWBIr1lDsxxMtU6jUade35G2Kw4AAB89SURBVOBSySGnfpnYDBbIJ/e7RXIFCa3WYzBojVWUUvO4en+KmbWCxDQOqqLk7JA2cpxb0TNxN5WS3F3lTqzbMj3TmlCf60xQHXE9x9nx+QRlJnffUk034qso7c2pUFE6hnYfhuNWUXIt0zMm3TtHxFGpKLk779md/58TbllFaVq/81WUjo1TnKzjRoLBwI7/38psLcC4uAD7KSa4sDj5ZalAcEIIObDL1knKTIGdxxwnvorS/HGbtDuwsHgqnvIDOweC4KR7+wwwrd/5KkrHxpkIR/v4+Pj4+JxG5vZJ2HVdvv/978/ajFPHP/zDPzAazW5j6fe+9z3++Z//eWb174dZn6PTxD/90z9h2/tNMzd//OAHP+Bf/It/MWszTgzHcXjvvfdmbcZEfvjDH/KTn/xk1mbMHXPrhAVB4N577521GaeOX/iFXyAQmF2g7Bd/8RfnftCb9Tk6Tdx9991I0ul9N/vcuXNzPyk8SkRRnFsBh5//+Z+f0f7n+WZunfBNGXTYqNZo2zLxTIa04tCoVtEskXAqQza2gNPZoFozERJZcsuTkuQfpTkb1NogywKuKyArLqadYGX5dCyizK+AAzDo0jJsHEEhMbPE9ifBiEHHxI0s7bHt5Qwy7NKxl4jM8gWEQ44pg/XHKClVnomNe+aos0FRd1FkESwDE5mwLOJYBsQLXJAM6qqGbklEozKi4OLYFoalkH86jttUr4k6hMVx+gI5niK2cBI93xdwmAWnc004FGElAbruEo6EILhIMqNgqiZydDxQhyIpwtE42akO+GiEE/r1x8hUZbIXV0gm06TTcdxKkZp9sKwyw1aLWagnz7WAw7DBatkmvLxM1MwRfbJzxFu05oRhl2a9Qi5bpH0mG3gzhrQKWUrGjNNlHWpM6aNpOrWqfq1fWqZDNHeBlXSaKBqqEyWdTnMhF8c1bViIkY46aIZAIp0cCzdcyJMVTYxR8AZRh3Q6zUpGRs1EWT2RXNK+gMMsOJ1OGGApS8JVUbf28LoCEjq1rVFsZII8PcXjkQgnDBvk8w65UmxbPUFihTzhm/xsNwO0qraPJCHHwDwLOLgCojjOdyDKErZpHVCh6pQQXGI5nSI+p8kqjpNRt40jzkm4+6BjSt9AyBYJ67VxbmnAlcLEtw0613LtBOOE5Ul3+IDBMMBSJoo4aek9ECEhW2i6dWtt2ye+gMPJc3qdMEtkEg7q5h0zsERyBRm91maca91BDAdg1KW+0aDVqrO2uk53BEwSThj1aayt0+y0qK+t0xruLZwwatfQpTjhnZ5+IUM+EZpcN32a9SadbpfOxiprnRH9RomK3karN2iOMzfQ3Vhjo9mhtbHGRnfEqNfgyS88ymqjwdoTj7F+RE5xrgUcQss89dQyoWGPWs2lUErNZZJ/n0My6qI74ZlkY5vMPseUTfptFzmRIqPoVDe98NJybEofDRCLbctG4jrYgwG9RhXVBBZixCasQ4z6dWpOhmL2ZGL1voDDyXOKnTBEMgmcmkqfAaYrE0tlkLUa7dEIwxEJBwDHRDcFwrE0GVmlpI5gl3AC9CtZqmKG5UiMdNyiXHH2Fk5wHFxB2Kl1AAQJhabUPdCpaTaCrBDJZIhLARaSWaKyQiKdZHkxCN0iOV0hsxwhllFol2o4i0lSsoUtJMgVy6SO8p6cWwEHgAE9wwRJGtvlc0YY0dUdwrGZvW0wkX2NKQD0aaMQCYRIZRX0qnawpRLXxrYsLGtSdMfFNjp0Wg0qRQ2lWCJ5IqfJF3CYBafaCRPJkLBrqC0DV16EUIqMrFHT2zhiePwkF4qTVSy0ZgvDcnEmdqARbd0E16TT6dBxomSim7HBmwgnBMJxFMvE2vVNj253NLnuUIZCvE0hEeZ8ooI1IRf6oN3GwcHodOgYAomMMr4JBAlFDhAIhY7uRal5FnBgxGgUYjGWZCUrUc3kad12a6Znk1G3hoGE0+thmQ6OZdKfh7XG/YwpAL02lm3SaDTQXQVZr6IdxH5RIRyJsJwrkJABerQ6W2FeASkcIRJLcrEUR8sUaB1hE6fiCzjMhNPthImQSdhUSjbSIkCIREpCK2oIm1PWwXqWgpMgvRwjrAiAQ2/73T5o0eoFCEdlEJWxcEIsQVy53tGmup/FLMV4m2rzxrtv1DOxxcDkul/+Bmb4y7zw0lWMkoha6wMCW/2602pxt6IgChLhSIRIJEYiKh/FyZrAfAs49C5FkXPN8ROGICC4Dgd8381nTgnIcba69XxtW9l7TAHoGZC6mCaZTJJcKVKIGlQP5IU3CSywGAL6bSx3wtRaFBEdA2NfWsS3hi/gMBtOuROGSDaFpCjXUt8tpDIocvRa2EiQZUTLoNNt0XYlhLaKae8UToDFfIVUu0K906Xb0jCdn+xDOCFEslolruZZ3WjR6/fptppodpj4wpS63/ouaqVOp9fHtGUScQmQiYcdtGYTy5X52ViJkqJSbnTodlpolovQb6IZFm21QffInhjmW8BhMVWilBCxBz2aFQ2pVORM5o4f9mjWa+i2hVZr0OnfBo/7wQUWFxeRXBPDdnFMA8uej3bffEwZ0tl4klxZpb11Iw5MLEFALxfYaPVh1KfTqKPqDrZRo95oce2S9lvUawaOpVOrN8bCDeuXeCxVxZHHog665WKqdTp9IBAmFbXR9T7dZovj9MW+gMOMmHXy6mnsX8DB8W7UanC93doNU4QYJggnTBZd2AeuPSXh/uS6dyWE9yaINriu5x7QmLMp4GB45hEqGZwKAYc54bgFHI6bwwk47GdMOUlczzYMbz86F76Aw+njdCbruIHgDpGFSaILU4QYJggnTBZd2AeBEItLk1ZqJ9e9KyE8E0QbAoGTSU4x9wIOpyHFv8/ZYT9jykkSIHRS94Av4HDinPpwtI+Pj4+Pz2nFd8I+Pj4+Pj4zYm6d8HA4pNudRSLH083Vq1dnqqLy+uuv8zM/M7fdChifo/fff3/WZpwKfvzjH2MYxqzNODQ/+MEPbishmH6/z9///d/P2oyJfPe73+Wtt96atRlzx9yuCQeDQZb8tcADc/78ee68c3aX9YEHHuB//s//ObP698P58+f5wAc+MGszTgUf/vCHCYcPloR1njh37txtJYm6sLAwtypK999//9xP0GfB3DrhPem3bqJGkjy0Es2o36RcUpEKX2ZlH4WcdgUlRj06BsiKBLaJI0U2X8CYAxWlUZem5iIr15Mqi9IioVNyaqezlyrNNDWbU86gS7Nt4kpREpEJilhT++IJcZAxpXeJx9QEzz617UGh36GuquiWSDQqj5NciFFSy4sE6dO4VMGSwkg4WIaFEA4jYWPYMrmnxgpKmtbGVuKkEikUR0fVNdq2QjyVIB05xn2Cwx4dW7qhn40GXQzTxpXj21Sc5mBcOGOc3mnJTdVIDlLQiFazc+1/gYVlEqKFuY/8AaddQQkAW6eUTRGPpyhoLuKmA54LFSVTp1Iuki8UKBTy5DJ51HnK63BI9lalmaxmc6oZtKgbAtFkCrmdI746QRFrYl88QQ4wpnQ1Fb1avfG+XYiQjrropkQqnSadXiFhF4g+WmeAiSVkubiSJr0iYVRNpEya9MpFsqKFOQqyuJxANDQcJU1kIUBwaZmEYKA5yjE64BH9VoN6MUuual3/uLdGviYQji0jaXkujZPuz8e4cMY4vU54F3uokUxjOM7lfOA0AWdBQQkAiWztKldf+RZ/ejE2ntnOi4oSUYrfeoEXvv51vl4pkCtVuXDqxXb3p0qzW83mdDPUShRVG4EAS9kMYrWCvuuoCX1xpkwbU7qYUoG8oFHtTPvtmFA8iqCrtP+7gBKfvOFvMR5GcAGEXTnbJySmP2ICLMSSpBPKtqpGtMoqYnws2biYUNDLGqO5GRfOFqffCU9TI5montRl4/FHeOxSk8alx3m8foVWpYzW1lEbzRsyUdntBo1mg/UnV2lOyFB1OAWlEd1mnVa3S7e1xur6dycoKMGws85avUWnuc5avTfB7qOcf7rYRotOp0Wj2R2nqpwXFaWlyGbWogFNzSW+PPth+ZbZpyrNLjWbU04wU0UvxcZ9yjaxJQV511ET+uIs2EvhqGtCOEkmK6LVbuaFh3RqbeRigcRHYyxPe8VlMUbs2jji4th9BoMBg0EfeyZ5Wm1M00XcWgUSRTBNrHkZF84YZ8AJT1EjmaietMRKSsKwJZL5EqXEJ4llUyhynFRyedsTh40jxkkuJ0nIbar6hHoPo6CEhVbVcQSZpViGTPRndysojZrkCybRdIzIcgZJLdEQdtp9hM5IihJPxIhEYkTtItmNwZypKMGoU8WQ4nPwZHQE7EuVZoKazUnaeBwEQptr+QPqJYNMJb87EcykvjgLbqpwBB0ToovjdJaiWmWXG3YM2p0OzY0iZStDObe0/6Q7LriOjW1v/bmllhwSF8fdMbY5Du6cjQtnhdPvhKepkdxEPUlWpG2DwsRCkeXxl4IATAhWH0pBiUVy+TBqPs7581lqzoRYk6ljOGB3OnQ6JmIqxVa69L3tPjhDy752Y4VkEUPVGc2NihLACK3cvkHH9VSzH1WaSWo2J2rkcTGiV6/i5Go8Fdl9PSf2xRO2ENhD4aiDYbm0Gw0abQFF1KjulPYSw0QjEZZXniFPgWz1AJMJQUBSIiwtLbG0FCEcnoVikYgobJt+uIAoIszVuHB2OP1OeIsdaiQ3VU+a2K97tFoHuFkOo6DUv4zuJPjTF17hajuPU9MY7lBQGslRFEFAjkSIRCIsJ6Jcezf4yO/HEe1KEc3a/J/jjkNPc6KiNKaN1uZ6aOy0cxNVmtFw/OFENZsZmHrUDFoqVjjPhUiQYau5+QQ5Yri5VDOxL86SCQpHo46FlF0hnUySTF+glJPRau2pkwVRFjHbp22fdYhwWMDaegq3TdxwFHmuxoWzw+l1wjdVI5miYPTGd2loFpam0txaaAvFSaCP9UOlEKN+C82wMdQmvX4HVbexNI3ernjgIRSU7CHtaoVmt0fPdAgnogR3KCgFgknKRZHaepNut0NTt8Dt7bb7SAgQz+WRnN5YRUmVKJeWCcyJihIAIxvbETg7E+4pqjSjFvlohvpwmprN6WbUeZJEpkA+Feb8+U8QLlnIQH89QbzYZWpfPEkj9xhTBq11cvkyars3drqjPqYj4KpFivUOg0GHurr5+2aPISBH44iGRqffpNkZMew2aWxomFho1QbN7tbEf0tBycHU6nT642NVzcY1Neqd49NPGnQabKgmtqFR31yLj+RzoDboD/o0ay7ZQmy+xoWzxKwVJKaxfxWlmzFFPWnicbdSzcEUlCapN+1SUPLc3QpP++CwKkqmaXk7T8FcqCh5rmdbt6bespO5UFHaS5VmmprNCXPiKkpT+uJhOZyK0hHjmJ5xiwpE++WWVZS24zqeaZq7x6pDjAue56soTeP0JuvYF/tVP7lFlZQDKihNUm/apaBEgF0fHRdTFFLmQkWJAKGFM/FK1o3spUozTc3mrHMW1XqCi6dzm1kgyOKEizEf48LZ4fSGo318fHx8fE45c+uE33vvPV/A4RBcvXqVQGB2C6ivv/763Oau3eLq1asIwizeOj19uK7LK6+8MmszDs0PfvAD7rvvvlmbcWJcuXJlbq/Xd77zHUzT31i8k7kNR995552+gMMhOH/+PKPR7PbuPfDAA/z0pz+dWf374fz58xP25vpMQhAEHnzwwVmbcWjOnTvHG2+8MWszToxPfvKTczsJ/uxnP8ubb745azPmjrl1wgdm1KNZ09DaNnI8jCyMN70bhkjmmRWWBh0alkwycmvri6desGECw14Hw7JBjhO7tgY040Tt+04ofxrxBRzmUsBhKkO6jRqabuAocaKSgOvaWG0LOfc0caeBquuYKMTjKaK0UVUNQwwTl0VwXQQlcX3sOSbxmVtroi/gMCvmNhx9YAKLLK/I2DUTOZUeCyqsXCQXtjH6MLLaqG3rljb/nwnBhh2MWpcoGjKx5ThOMc7jzSGzTdR+kITypxNfwGFOBRymEmQpmULaFFdIJpOk0xfI5yQsc0QokiSOju7ESUZChCJJEpJBmzjpdJr0SgqhkuCR9c1Ey0cmPnMU+AIOs+bsOOHtBABGDIewkIoiOxCIXORPL0YOv+/wzAg27GAzgxMEkSQX03RmLOBwgITyJ2XSkeILOJweAYft3CiuMBwOCSymiG5XdpiaWyRINC7RrrWnOK1Dis8cCb6Aw6w5m04YYKhR0wYQjBFbGtLdeJxHHq8zZEBn7TEeeXydZn2Vx55sMmREd2ONjWaH1sYaGxOesg4n2NCnWW/S6XbpbKyy1hlNEGzYXfeo1+DJLzzKaqPB2hOPsX6MHT0QucDT6QVG/QY1O0UpuzA/Ag7XmJJQfpYmHRZfwGH+BRz2pI9aazNigVhsH8HjUY+aBvli6saJxV5CETPDF3A4Sc6gE7bR63U2KjXa16LEQZYyCSTHBUJEMnEE00VJFygX4gS7RXK6QmY5Qiyj0C7Vds9YDyPYMBjLJAqyQiSTIS4Fdgs2TKjbWUySki1sIUGuWCZ13Jvyhj0M00WSRFyXuRNwmJpQflbm3Aq+gMP8CzhMw3UxtTr19Qo1Y+/e55oGnU6LerFEO16iGNsxg99DKGJ2+AIOJ8kZdMIS8XSaladK5G+W/FyWkQgSCgUYtNs4OBidDh1DIJFRdjnbQwk2hDIU4m0KiTDnExWsCeZMrVuQUOQAgVDoeMNyoxGj4CKR5TS5sE4mV2c4d4napySUn5k9t4Av4DD/Ag7TEASURJr0hacp55Q9l7YEJUwkEiP9dAGlkqW8M6J1U6GIWeILOJwkZ9AJb7HA0h6LadfCKoqCKEiEIxEikRiJqLz74MMINrz8Dczwl3nhpasYJRG11ocdgg1376fuY2PAekIiVb8ubOHaDs7cJWqfklB+liYdFl/A4fQIONyExaWDhKdERNFCN6bEMyYIRcwWX8DhJDk7TnjUo7WVGH2jQae/fQ49pKvqmJaO1vtvdFQdy9LYaPUZAYFYiZKiUm506HZaaJa7K63koQQb3vouaqVOp9fHtGUScQl2CDb87IS6hX4TzbBoqw26xxqHDJEqlslI9jhpfg3y5SwLM07Uvu+E8idn0hHiCzjMrYDDVLaJK6h1GjueVgedOmrbwWmr1DsDBt0Gqm7jtFUa3QEQIppQsDSdfqtJ68rNhSJOGl/AYcbMOnn1NI5GwOGAuK7n7kvv4WCCDa7j7ErevkuwYb9178FhBRyMCe2ZDwGH7QZNTih/UHwBh/3jCzgcHY5leOYxX1BfwOH0cXaSdRwFgcD+Zt4HFGwITPhwl2DDfus+DoILTEpONneJ2qcklD+V+AIOkzmLAg6bBBeWJkTY5hhfwOFEODvhaB8fHx8fn1PG3D4JO47D3/3d3/Hee+/N2pRTxeuvv85PfvITvvnNb86k/r//+7/nnXfemVn9++G73/0uP/3pT+faxnnhRz/60dwKAuyHH//4x/zzP//zbXOtLcvigx/84Fy29/XXX+d//I//MWsz5o47PM/zZm3EJF588UWefvpp7rjjjlmbcqrYupyzOm+zrn8/nAYb54XTfq5Ou/0HZZ7b63kezz77LB/96EdnbcpcMbdO2MfHx8fH56zjrwn7+Pj4+PjMCN8J+/j4+Pj4zAjfCfv4+Pj4+MwI3wn7+Pj4+PjMCN8J+/j4+Pj4zAjfCfv4+Pj4+MwI3wn7+Pj4+PjMCN8J+/j4+Pj4zAjfCfv4+Pj4+MwI3wn7+Pj4+PjMiLkVcPA5DYzobBTRXQVZFHCsNpYQJiwJOJYB0QIXYjMUbxt06BJhourkvhnRa9QwEBEAARtHvkB6gvTjvstr6hBfZnFf2pUHPf4IGfVolEvocpFn0odTb+/VV1FtBVkC2zBw5Siy6GAbLkr+Isu3dG18fE4//pOwzy1gYzpRchdWSKfTyEYNQ8qQTqe5kE/gmtaM7OrTqtdZy2UptW+xqG6Zsh0nnUySTCZRbJ22M/5q2GrR3UcRNx7nYGoahj3t6BGtZmfb//c6/hgJLJKMi5iWe8gChhi2QubiCul0ArFdw1TSpNMXyKXAso7SWB+f04nvhH1uAQc5HL8uVC6AsPXvQJSwvDV4j2iurtIaXf/lqN9i7fHHWWu0aLWabKzX6Q4BBnQ3nuSxJ9dp9YfXfzDsUl99nCfWGrRaTZr1NZ5ca7GtyG0sEEunSUTFW27hyGpjONed0EImR0Ic26lVNZw9S9h5XIjkM88w9cFyqFPT7G3t2uP4ucZBCscZmy7c8E0gEkVxJ189H5/bCd8J+9wCS8SmhpsDxJYj438O21imTlm97lQDC1Ekx0GMx4jFlslIKtliBwixpIDlKsQWtpUdXCIqmThyklhsmeX0RbKyw3E/IAbiWeRKnAcffYJLG016xFheGtFvlKjobbR6g2Zv3K5Ba4N6s0Vz4xKXGn1gwnH9FquPPsKlLkCfZr1Jp9uls7HKWmdAq1JGa+uojeZ4UnLD8TBorXFpvUGz2aDVWGejA6N+k9UvPMJqBxi0WHvsQR5vjoAR3Y01NpodWhtrbHRHMGhRb3TodjvUn7xEc1Kj+03WNxq0Wi2ausnWFGTYWWet3qLTXGet3ptg/86CFojFps0eIsTCBhvrDVqdFo2NDVoDYNSj/sQjfGG9Py5/9VEeWu3AsMvG44/w2KUmjUuP83h9wLDToNHp0u02ubRaZzilJh+fecZ3wj7HzsBwiZazuNUagxu+cXHtAYN+B1UXyGSUPctynQGD7jrrzRFLiQTSYY0ajRgOhzv+THgyCyZ51tAoxAWMWp6o8ij1foCFZJaorJBIJ1leHE8WrLaOI8dYXolilSt0mXDcQoyMImC7wGD81CvICpFMhrgUIpZNochxUsllloLceHx/nWwRMheSLC8nQKvSdiGwsEwmzNhZhmKk4iKuC3SL5HSFzHKEWEahXarx39o1ahZISoR0LoG8q8E9LuVU5EySWCzGcnjzDI+a5Asm0XSMyHIGSS3R+G877T/IBRjSyJVwE0likRjJFFRydQaBRdIpGddxgQWWMwqC40JwiZWUhGFLJPMlSokQZq1K2xVRlpbJZMI7nrV9fE4HvhP2OWb6tC0Q3DBxt0qtt/07F8d1cV0BURGxrSnB3dF15+g6NrbtjB3Orbyo5Do4zu4/O93wqN9nEFwiffEZnn3hKkbRpXxjI64RTqUQ2g2aLXPcrr1sCGUoxNsUEmHOJypYe3iRUVvDVMKb4d0Akjw53L5VzKDdxsHB6HToGAKJjMLPJgtk7RKp6HkeKhq7fzzQ0RwZeevcCpulmTqGA3anQ6djIqZSKB89mP03YqC1BaStB+WghGCoTLDoBmRFgkCIUBAihTxiJUv0/IPk9cOuW/v4zBbfCfscLz0TwgqiKJPKyajVba8yCSKSvMDC4hLLKQWzVGO3exvR0vRrzlGUl1hazpOLBxi1NPTDxiCDIRYWFnb8Ce3y625bRdv2+L4QDSML4/ekxU2n02m1GNEin1WRMkmWY2EkAej16O86bhsDHTP8ZV546SpGSUSt9bd92aPVujFuEFAURNu+FnZ1ne2O57oHdJzxBEBUFERBIhyJEInESERlftIyEItf56VXrlKL6lR3vlkmKijYu9e65SiKICBHIkQiEZYTUcT/fjP790ImLDs4W00cOjhSePxkLgjXW+M6N9qyzdF32i65Z7/FK1c1MkYV/QC1+/jMCx8oFovFWRvhc8oZdmk2m6jq81xxPsK9d9zFhxWJDw1aXMp/lTtTK/zqL36Iu95/mep/fI73H3mET43aVL/0HJZ8nnsGPVpf1Xjvi7/P7ygjul/7Cl+5fCfnP/4+rzX/E6XLn+F3HxrRqFR48e3z3H+3zVtXmvynyhU+t/JrfGyXQQO6zW/wvKqi2x/m3ns+zCdk8VD78UYvr1N6fsDd99zDh99/k69VHX7t95eRhXu467Uaz79/D8J797F0n8Cb33iRtz92P3f03uCNK5cxPyTzyXAYaftxd3XZ+MpXuex8ll8PG3yp3Ofe++/Bsd5GDH+OT/6SyA+/9hxvnbuTO6UI973bun7876T43OArfGXwcT4+7PJ87Xmcz+X4TRk+fNdrPHf5Hs5/+HuYmop65SN8Lpvjc29VeG7wYe4Zvsll50MsvlWl1D7H+XPv8pZ1J5/8tTAf235i7pT57Me7VL/5PufuGdB5rkZNf5sHE7/HFz/5Ml/55rucu+uHdA0HKTTBfmnCWR50aHzjedTnX+SN9+7l3B13c+99v8SvPnQX9dpr3HPPu/xNTee+fIHPS3fC3e/zN+obfPz+O+gZ30Z73uIT4V/ktf/v/+W5KwL3f+pT3PeRO3lt/Q958e5Pce/I4o07ZT4Xvo8PHeIa+/jMkjs8z/NmbYSPz9wyGv3/7dyhbgJBEMbxv5t1W1cJrpJHKPLepDxG36KVleB4A14DHOeKY9yNqyg0CwskBHG95PuZS2Z2byZrJpdsjjCD3Yb1d2I8GVFeRQsPLFsZICxXX9TVupOcQy73BO5GvnbnLRwnsX1v+GxWfLyW8Uzm8Dy+MILAsL8CgXtHynWfRRE8jGzBb3t2Fr/V/30un82xLmf1q814l67nRf45DWGRIfKWxaxhPl3y9fZCj79EEZEHaAiLDJHvaPcdkHgaPWsIiwyUhrCIiEhPfgBl/zbnNjKzRQAAAABJRU5ErkJggg==;" vertex="1" parent="WIyWlLk6GJQsqaUBKTNV-1">
          <mxGeometry x="20" y="390" width="481" height="114" as="geometry" />
        </mxCell>
        <mxCell id="WQaWYwOavrE4UbBEG4pA-7" value="" style="shape=image;verticalLabelPosition=bottom;labelBackgroundColor=default;verticalAlign=top;aspect=fixed;imageAspect=0;image=data:image/png,iVBORw0KGgoAAAANSUhEUgAAAeMAAACVCAYAAABre5JQAAAABHNCSVQICAgIfAhkiAAAABl0RVh0U29mdHdhcmUAZ25vbWUtc2NyZWVuc2hvdO8Dvz4AAAAodEVYdENyZWF0aW9uIFRpbWUAbWFyLiAxMiBub3YuIDIwMjQgMTc6MzY6MzE7CGyyAAAgAElEQVR4nOy9f4wr9133+2ra1BOa1tO0jaeQZicXwk7UhJ2KVna5FE8FPHYuXNnVg2RHPNI6F6Hj6qIeH+mR4iM96Pqfq/jo4RIf3T6qjwSqVyrUvhR1LAU6FoWOUVFtSB7GNCVjGsQ4CTAuSTOGk2ZMW+b+4d09u+fsr7O/7N0zLynRWXs838/3O9/5fr4/P++3BUEQEBISEhISEjI37pq3ASEhISEhIXc6oTMOCQkJCQmZM6EzDgkJCQkJmTOhMw4JCQkJCZkzoTMOCQkJCQmZM6EzDgkJCQkJmTOhMw4JCQkJCZkzoTMOCQkJCQmZM6EzDgkJCQkJmTOhMw4JCQkJCZkzoTMOCQkJCQmZM6EzDgkJCQkJmTOhMw4JCQkJCZkzoTMOCQkJCQmZM6EzDgkJCQkJmTOhMw4JCQkJCZkzoTMOCQkJCQmZM6EzDgkJCQkJmTOhMw4JCQkJCZkzoTMOCQkJCQmZM6EzDgkJCQkJmTOhMw4JCQkJCZkzoTMOCQkJCQmZM6EzDgkJCQkJmTPvsG173jaEhISEhITMFUVR5pr+23K5XPD888/zjne8Y66GnHe+973vMZ1Oee973zuX9N966y18359b+gdh3mV0lnjjjTcQBIF77rln3qYciu9///tcv379jnnWb7zxBsCZzO8bb7zB3Xffzb333jtvU06EN998k1/5lV/ht3/7t+dryI/92I8Fr776ahByspimGSSTybml/xd/8RfBz/zMz8wt/YMw7zI6SyQSieAb3/jGvM04NC+99FLw4z/+4/M249T4zGc+E1y9enXeZhyKX/qlXwqeffbZeZtxYvzxH/9x8Pjjj8/bjGA+w+HpgLVKg57r4gka5doFViIAIzpXa+i2jyBrFEq59c/PP6POVeqGheOCKEmIAvg+SGqWwmqcGCPaV+uYtouHiJIoUFpdIQKMOleo6Ta+qFEorxKPHtWaKf0rBUytwVPxjQcwoXutiuHs/AtRzVPKgl5r0nPWbVTS5C+mWGJE+3IV3QUpUaB8Ic6RTTwNG6cjOvU6pg++K6JqIp6f5mJu6cjW756tAWulKrqnUfniBVYOe4+N9wsJWVqvTHKCbD5LPLb4L9Woc4W64eL5PoIgIgg+vufjI6AWqlyIO7QuVWg6Ccpfvkh8jrZOpxA5apGGde1EGHeuUK73kIoNnk4dvdU5UeY3MraCsqYGikAgZZuBs/m5FzSK5aA3B4tOkoOM+rxmOgA1qNobH5hBUZ6Vjzv7INDzYoCYD3Rv6y/toFaoBvbNN9zCbY2MvWaQFQnEbDO4kUwvKCXyQdP2gyCwgrJCgFYP3CAIPKsWpNO19WdoBSWZgHTjxm99K6gXi0HD8vdM9rZGxqdgo1VWg3Td3UgwMEtqoJStg9l3FIxCIErFwNzjkv1HxrM8Cnl9/W8/sKuJQBATQW2vinJKHGRkPHsf5KC02Rh4Qa+qBYmNF6RXCmQhH+i73eA08I2gWNzfgv1Gxotc1/YfGS9yXXOCWkIItM2yvZVFGRnPdze1UkLXCwh6geylPpP1j4X1/+54ogk0VcA1mvSmAFEypQKyp1NtjDYvm3brWFqB5WNKdtTU8RQJz6jT3Ehm6oFWIrd8a083ulKkqLi4O96szeWSgVL5HKvHOM1x8jaO6fVsHMtmPLsDyXKZrHxWa2aEZU1F9Ho0zdH+ly8cI/p9n3ipTMJ15m3MJqNmDcM76l3CuhYCc961JSCl6hh1h0QxS17t8ZVVcdsVw6uPkzUUylkBvWmj1ZpcXIH+1Sz5sku6VkT2PRy9gZOtUhQcHK9HowFl84vkYjDpX6VYtVDTCTzThGKNp5OxueT4tpja9GwfUcuS2PAR8RKlRJ1SrUb/4jPEmaA3IV87rvwMafYS1BsqeaVMrT7kwtPLENGolHdzphHSlfItn3r9K2SzOmnzGxxvcZ+GjTG0tEKprCE1ZRIJDa1QonxhGRjTuZynULOR8wXyqohlGPjZGo0LK0SYMlgrUjEk0ppIz3DI1j5HZmlE+1KJJmnSsoVuJajWV1mOjOleKVFzVNKqgGf28NGOp6h8mAJMRhgNE18tUsmuT31OOnxaq+AViiSsJrpQpPm5DLFRm0/nCzTEMo20gOuaNAyJqvk5UlEYdy5RqENaA1O3EWWwKNOr+lSKdTwti+oYmHKJ+sWjLkn4uM6Avl2jYpf4SjxFtTrd4bqdy1bsXSafr0G+Tlby8O0mDb9ANevjuC5mw0CumjyTiu7STnisfSpLyVKpVBLgORgNC61uUPTrlKomDgKXL9skik+ROdSs8h1Q13Z8Pnn8ZpFi2YB8g1rapFJq4qcb6M/IGE8UqIsl6lWB2g711G8/SbZgIBfLKHaDJmXML+eQhi1KZR1B01Cw0Z3jyd6JM9dp6uLGFKMXmEUlEAQlKJpO0CiWg40JGrtZCkrN2eRirygHQnrjN3qQF4QgUZt959YTAWI2aHpBEAS9oCQLQbrhBYFvBgVJCNLN9QlJuxqoSik4hQmgbRx8mloMtGItqNVqQbVcDqqNXnDzBIunZwMRMcjrXhDYtaBQ3T83B52m9s1SUGi4QRC4QUMTAuRiYN4yu7x9Cvjm70oyAZIa5MvlICsTCIlqsM8MdRAEB5+mPj0bvcBqlIK8pgSSQABCoG6UtVsPNGHLFKpVDpSNv61yoAiJYL1qBm5dC6SCEfxdLREIcml9CcYP9LwUpJte4DWzgSgVAmM9fb+ZDYRjmqZGLQaNZiOol9KBLCWCam/L+oZnBrViLeh5QRB4jVl+1rNnV9WATZuMoCCKQd4IgiCwg6qy8T55QTMtBErVmv07KwZiwQhm2TCDonyjDG7m4NPUYpCuNoNGSQsSN0/bbpmmdnYp2yDwgoYm3FjOsMqBghQUTT8IAj8w8kIg5o2924leMZAEJZglP8uzvP7gzYK4ZXp2d/bfwLW4de2g09R71bW9nk8zLQZSwQj8wA5qqhDIRTPwAz8wyuXZe71rPbWDqjp7Fr6tB7VGL/ACKygrN/xCsP73WZimXpDzTFGSnzOoOyqFbBYrkaa+/o0oKfiNKle8BJ7jg+/hw3pvW0BRNnpeAoKkoERn/wbw8cG1sFwQejotBPAF0tnEAk+Di6iFi1zcY0dKNFOmIOvUq3XWEjZa+eIxpT3BaPRwhSqXbfAECcFpUjeqJDO3Ob5RStSfXkXIQkKrkC8n6D2TPIaNW6dl44RB10FZfYYvrj4DTOheSpBuGAyfWrmxJLBRkRQVmSqWNWYiWNi+j2W0aIngkyCvSQwNGx+Z3loLR/Dx1DxpCWzdwhPzSJGb7nkMCEqa1VwGcmmwJIqFKtkXn57ZL0hIokW9chVLsfF8H3/LlKsgqyiRDYN8fB9ARkvLNAyToQqGq5DVFMCiZ3kIikmz5SHgI+ezyEfOgYii5ViNK4jt2axZ9/Jl/MrTpLZcZfd2LtvNu8gKm02DIKMq64UtCPi+D669TzshoyrrNxCY/ebYOP91bffnEyVbylLK12nmEzj5IlKtjlF2McU8z0QA9q6niqoQWY5zcRmYrGHZIEnSTiYuNAvijAGWWG0aWJpGzdZmH43XKKQryIbDU8kIfatM7XZjlEgqqgSOmiaXm81Dav0+x/kqnT5xSqUE9VKZimJgH9cU8FhHl2roT8eJAEzzoCRo1HTGmVVuK5n1lzwSf5pmrUeimKeoWXwxc0RjT81GD7NWw1E/z8zHR0lmNSRLQtzpXraF48toaoyooKIIBoqWI7cMkEbtu4iegtATSazmZrt/pwn6NsiqgtB02WxfTqRyioiiAD0bawqyN+br1TQFq4zztQvEJms0S/oB7hPBF9JUShKuC2Xzr1mOAigkVJGGkCCfy8yeTaJP/9ga+xUyGWDSoWFLVG5ajVASO5ftBsI2O3Yw6tDthDCbnp22qdUVnrp4mJ0b57+u/dgezyeSKpIXNUolmaZVRjVVynmBUjMHQL+8Tz3d+jijCooMPc+D22sN5s7b3/Oe91R+/dd/nfe85z2nl+p0QOs3azTNr/PC9AM8lviJWaUTHiD9+MMMzNfQCr+AdPfbeL33LF99Cd49HeB4PvbXn8P54E/zoec/x+88+xKu/0E+/rEJX/qtBqZznXc8/HEeGn6Wz+oWr74m8ZF0jkL63Zif/R2ef/11vtX9Pb7qf5RfVqVT7YmMRiNM06RQKOz8fecqtcZXec65zg/8H3L3Qx9DlXa3UHzkA3yrYfOzn/3vpA7QCXzllVf4kz/5E37t135tx+/H3av85n+t0fMlfuITCX7iXhj/6R9iPNfjhecs7Dfv5oOPfZR7nr/G/7j2LGbvBdzr4E9HjO9+DPUBYfZc/58az37dxvV/wA9++F4eTvwE7/jHPqbRwzRM/v71D/DILyi8/xBldLo2Sry0Vkd/4VsMBkP+/ltd/scXHLLV/8bPS++AN59nrfYs9vV7uGc64Npv6Yi/8TvU/vMDCNIn+MUPPUf9s11enwzp/p7Oa4/+Mj//n3+Zx0Zf4Lfa/8ib//gX/GHTRkr/PCv/6yd47O+b1P/0Td42eR6j+SWMF17F/9An+N93qae/+7u/Szqd5oEHHrj1yy15fNX/AW++7QM89tEfR77n73n2WRP7+gd4zXyBH9Pu5X/qPV579938o/Uavvd1TOtuHnt0wpf+3y/Qe/U673jkE3zg+Rr1Z1/A9T/Ex35R5f0vXCb9Xz7Ll770Bb5QX+OPnv8hj/xiklT640z0Gs3Rm4yf/0N+zxT4hcyjOzqUN954gy984Qt85jOf2fFZjzpXqdafpfeSBz+Y8Pf9P+WP/vB3ufJfK5jyb1D5lR/yR//3Z2laLv6HPsJ/uVBA3aFsP/D8NaqNr/LSaz/g4U88zLBe50vPOXjiR/jEu7v8Vl3Hfu0HfOhnf4PSr4g7tBMT/vA36+gvuFyXHuPjP/wqv/U7Bi95P+ChT2T52Qf+kWe/ZPLqqx7SL/8KH93lnTUMg/vuu494fKcprwn9Ba5rv//7v8/HPvYxfvInf/LQde3H/68yv7CDPT9xL8ADPPK2P8J44L/x31M/ziMf+BY1K81v/Z+Pci9w93SIsUM9vf+dX6X5/z3Hq94P+NBHfgHl/bN7ffzj7+ar9S8w/uGUYfdLfOnZHi+99g4ee/wX1tPbzksvvcRf/uVf8qu/+qs7PrtT40wE/fD94ABLjqd3n0NwIgEt/IPnJgz6cQg2itf3Atf1ttedjXU8K9j7Oezy3W4/8df/7+/zbA8f9MMPvJvysl9a2/D0IK9mg4ZlB45jB7ZlBvWsHCSqWxeH/X2r5kkG/bid7Ox2g+NuJ/ZdM17gunb4oB+31rW97Nn3brf7w4118X2e56KsGZ8NoYhIhGM5FHNc91kUjhxpIGRPNoo3EiUWi26pOxOGZg/X97GNPuO9nsMu3+32k8j6/yMn9mwjRLflhdtLS5BJSB6m5eL54HsOli+T1bZOz0TmWjWPnPY82ok7pK7tZc++d7vdH0Zu/O4stJQLtGYcEnJWEJASFQynAgg7r+udVyIrXPzK15iMhjiuhy9qVPVVomehtTuT3MF17Q7jHW+99RbPPvss991337xtOdf87d/+Lf/yL//CH/zBH8wl/b/7u7/j9ddfn1v6B2HeZXRo/vL0k3z99df5sz/7M1555ZXTT3wbL/Py391+AYzHY65fv372nvUh+fa3v82//du/HT2/c6hr//zP/8zXv/51vve9751+4qeAZVl43pEjtxyZt33iE58IotHomVV/OSv8y7/8Cy+//DI//dM/PZf0X3/9dRzHmVv6B2HeZXSWeP7555Flmfe9733zNuVQXL9+neFweMc8a8uyeNe73sXDDz88b1Num+eff54f/dEf5YMf/OC8TTkRXNflvvvuQ9cPcprgBDkTG7jOAfPenBRu4DpfhKpNZ4tQtWlxWZQNXHNYM54w7OjoRg8hW+Vicmughin9ayUanko2nSe14tFte6iZlT2CRUwZdkzQUuwQkviMM2Xct/HjK9yIsjdhNLBxPAEluTK/k3TjAV3LxRMU0smlM7FB4jBMxwMs28WXNZJL5zWXN7MgdWxHJgw6Osa29mPCoN2gabrI2SIXkrO3Zdxdw/AkZBE8x0VMr66HPN3/Hlmhh673sEWFhCIh+D6u08OWCjyzeih9oxNkzKDvocSXz8d7OBnSdyXiywuusnTMzGE3dZTlVB5VdmhWmmwLIz6xsMwejpQntRKFiUPPsHYO7r+Jh20YWHtfdPaYDOi06hQLlXWRCIAJncsVLDlOUnWpXWqtB5Y/bdvaXK65qKkUCbtI4lKfnaIFn3mGVyk1BdRkCskocWVwLnN5EwtSx3Ylykoqiyp7NItF2pP1zzJ5Eon0piMerX2KQk8ln0mRTKbI5FWMwqdYGx3sHrF4Dk00MT2NXCZDJpfjwlMlVNdaqPKYDLu018oUyibzX/U8KlNG3TatSoFiw5m3MafO/I42yQUKQoPm8MZHYxtkecs10SRPfW51HzWiGJlnnuEkZT/nQnSFVC6LtnX75KhJ1U6QjgLRFJpXpzHc7QYniC8girPgPaIs4drOGY9othNTujUdUZuNNpbTCmbNOJ+djq0sSh3bD6VEo+RRLrbXnaOAIK6HYpq0KFUEiqWVGyPFyArlIlTK7U11uD3vscHG+zceM2aJbELeZ3BwukSXk2Sy2jGEHV0EIiwlM+TSygKHKz455ueMBYlsUUavD9Y/GOEgI21xPuP+VZ74+CW6wLh7hSc++WnWOm3anTUuX2rNRtWjLpc/9UmuDACmDNvXWOv06XdaXGsPme7127OG08MRxM0GRhRdrNsND3ocxFI89VSK2GRIs+lTrmaPIeb0ouFi2z7iRn0URbBtnHmadBosSh07AMsX6pS9MsXW9rHqtKdjihtxtW8QVRKIpk7vAPfYwHddxuMR3VoTC4gmkyzaJHXI+WCuQT9i6QKKWac7BYYughLb1iOKxfNo4kwYIpbMk8DGVzJkUnlUp4E5AZaS5BUB1weGNUqGQj4VJ57KofZKVPp7/Pas4fm3hNX1/XmN1cYMZxHZZ3adO3w8X9he3J53DmcAbmKh6th+LLFaL+NXimzzpZ6HLwi3jq6E9e+2ZWeXe2zey8VxbBx3kcbDIeeR+UbgiqQoaj3qxpiBJ6wrLu2FhLQ5Hb2hInODsWngytJmr16SPMxNceu9f3smEMXtDYwPgjiPLRtTptMYy8kMqwWJRr4061CdK0REYUsl8bm1/M8jC1PHDsjSKo0yVAqNWYcciCgqsrPDLIZj4yqJW0bMO91jA0FRicdTrFYKKADjPt1FnLYPOfPMPRxmvJDGqVVwhJUj7wQUFQXBubGNwXNAUc+elNauKAlkz11f85riehIJ5fTNGF5JIBc7s/VTQUDwvVsasbNPDFUVcDYGRK6NrybOydrcHixIHbsdYqt1KkKNqrn+wUqJsmpSb2+d/prQrvdIlAs77kG55R43s7TMEjA2Lbxz1KSELA5zcMYThu0a9Wqdq50R05UiBUVGXoFxv43e83DMJp3hhHFfx3RsjM6IV/o6PdfBaA8YDXRMx8XU+4xHXQzLwdb7eMkqVUXnWqdPv3ONplShmoow3u23p5/5gzMZ0mk1MV0Ho9mmP5pCLE9Fs2j2x4wHDUy1QmEOG9eWs1WqaRF3PKRTN5CqFbLnb9GYeKkIepvReESn6VMoJ8/H0ZG9WJA6tjsTBq0qtWqda92NWa8YuXpti35xjNVmE80sc7UzYjwe0rlaxtAaNHKxA91j3G+hmy6uqdNqt2m3WqxdeZJszUZaoLo+HXVpN00c16TZ7jI8i8tvWxj326zpNq5l0OoMOOPZuT3OZdAP3wu8eckz7cJxBrTwXTuwndvL4LEH/fC9wLaswHaPr6AXMuiH7wW2bS9cfTrpoB+HqWO3w6kF/fCcwLadwDv5lPYkDPqxuNzBQT9OgUj0HO7uvUEktrzPca/TMCLK8sodsK80EmX5Dgs+AAtSx46D6BJ34OMLOYPMfc04JCQkJCTkTueu++67Dzfctn/ifOtb3+Jf//Vf55b+N7/5Tf7t3/5tbukfhHmX0VnizTff5IUXXpi3GYfm5Zdf5kd+5Efmbcap8c///M/8wz/8w7zNOBRvvPEGL7744rzNODFefPFF3njjjXmbwV3f/e53kaRwe+BJ8+EPf5j3vOc9c0v/scce493vfvfc0j8I8y6js8S73vUuHn300XmbcWgefPDBcyvJtxMf/OAHeeihh+ZtxqF473vfyyOPPDJvM06MRx55hPe+973zNoM914wngzaNpoEjJsjm8yTo0ag3sVBJF/JklmHQqtPoQaJQJCfZtB2ZTPxgoeXH/WtUaz75L14kvus1azR6IMsC+AKyArarsZpaoIWgUZer1QZC6fNcOLGFtgUKBj8d0DF8ZOVGuDRRWia2QI/kuJgMu5iWh5hI3zFCEeNBF1dUkQUP2wV1ZZGEQKYMOw0augVqlkIhhWit0Wj28GSNfCHHijCkU29guAr5/yOB9z8NTNNF0jTSn5Rxv2agmy7pytOkYsB0SKfRwHAk0oUnkJ2voOs9PFUjIYHn+QiyRnYhBVGmjLoGPU9A1VLnY308FIq4lehKhqxkoTsKyaUIkaUkhYSHboloy1Egyko2QUIrkFuJMnV66D3nwPF7Y/EsqtfbNdbrqPUE+YZM8eIquUyOXE7Dr5dpOAt2qHUpSVp2T0ysYuGCwdsm9VqFUrlMuVyimC+hL4Rhx8uk38LwVTJZFaek8WTnzjhoYTVK5NMa6WINR5AWzAFFZkIzjo4jaSxHIBZfRfMNTBKsRIHIMiktgVZcJf7wMqmcjNO0kbMplu9fJplTUDyLUmFtFhY3skyqkCCRKJJavp/lVBbJMfDUHJlMjtXVPKpTIX+5u2BHbaYM2jqukiaX8KmmN4QwziqhUMSeLGXzSGaT/vrfviAiWk2MjVpp+0jabCQciV/k8xfjt/Hy7hHPaNKiVPIoVpNbdkZHSZZLJM59GKTtLF4w+ASVr32Fr3z5y3y5XqZYbXBhoc6iHgdTevUyugNElsgXZfSasWCN8ckgaBV6L/413/jyM+QWUpc0Sjqv0mua6x3/Kb4s4ejGZsz5oSei3lwnN7MiIBUaVMUqhWvrv4iIe0Qai7C8WiVrFan0FynUnEWj0sDyIxDLUExY1PWz7I1DoYi9WcqSFw2afYAJFtlZUIB1bzxwBdTo7LvB2pN88skWEyb0rz3Jx5+8SrfdptO6zKVrGzHkJgxa12h1unS7Br1dRpPTno4paev33mpPnlI6BozpX32CTz55jU7rMk9c6jBhTPfaGu1un27rGq3+etM57nDtaotO+xqXr6zRvnqVZ1/ocPnxx7nUatNut7l26TIbA59xd41Wp0tn7QpX2rPKPepc5lOPX2Kts8alJ67QX7/uWqtDt9vBtM7h0HA3VuLrwfLHdAwfLbVYirfHQ4RUrUctPauAnuMiyvK5PjK3iefQ6/fpd9p0F7Rtj2bzKL0G5hSYWvhqmazTxBgDjHCR2bN/KMTI1KtItQLXDpTHGIriYzQXSTUjTsVorAdlmeA6IMvh/p+zygGONi2RzYoYzQFMLHxRI51XsZomEwa4grreQEVZyaeRPB+IEi+kkSwXMZMhldPwmjpDYNIuUXHT5FJJkskEirhLsp6/c7B3osRiADHieQ3B9lFyZWplDe9akbqYJZOMk8ylcaslOhMY1CpYao5URgPdRLh4kV9+NEVedXHQyGQypOUeDXOWgtMz8eQkqdUETq3OAFhKFUh4DiRWqdQKqKM1inWBfG6ml5qQ77y+3LTfwJK0BROfP0aiMWIRYNKhoivUq7vtbDhfKIksWjxOPCWhFy+xUIPBDaJp8kqPpjllankIiTT5tENTH8PIAfkAUzXRDPWaTK1wleF0/6UvQRDwvMXqdEdjMSLAdFClLlSpZhZxJiPkIBzonPFSNotgNOhaPqIaIarlUa0GRtdF2EvdQVLWp1YFBGaKN5ZuImy+KDs52xkRNYGyLdj7mEGnxaWPv5eHnmjdCPsmy0jrDtoyLMTNWHUSEj0MG+SEgmePYGLjyRo3Qu2KyPLsekEA1ie91GwWodem07XxfP+GUo8oIUdnLwA9HVu6Q0ZKOzLFqPUQ1fP+8o9o123yjc+xSHsGT4zpiBvh3WUU30BfpMHgJjHSeQWzub55KRohkU/jNHW69sF8MUA0VaMm1ynWbPaW5JriOh7KIgbqHnepGwnqX8ztPRsQstAcLOjHcpa8oFPuiagRZr1StUelCcptDotkVcb3NjzpHrV/uUBF620J9h5jJZUjqwrImrZt12Bk/f+yIuF5G914F9eTUWUQxCzZhEvXkql8cXWfCtulVNCR8hlSSRVJAIbD9bWoG52HiKIget75F5vflR5Gjxt6v+eSCf2WhVy8SDI2pdvpnv/n7RrU6tb6RkEPz5O2aYwvErF0HsWooDObnYsk8mhOjbon7fOO+1uaniipWg25UaG5lzOe6DScLJX8gs0DTYe0TYH8UxmWGNDpLnTE/ZA9OGA4zGWyeRlbVdcdX5R0PkHDU7dMUU4Y6Ca242MMH0exDBwH9L5GwtOxXQejO+apYp1spU57kEX2TEzXRmgN0HIrN40yY2QaDbxSiUtugWJWAdvEFtOoIsCYvm7iOCJrXZV8comVSp10pU5b0hBtA79UZzUGuDb1YgNRBqGhkC6WyUsWhuVi0WEoiZimiyMaDDUFRfKxewNE30EQXfSew39yLXqOhdvqI+fixFbK1BJV6h2JtORiWg6W32GYSHHce16moy6GYeK4Ps22QlpLzv8Iw9TF9QQWWV3vqAyvZsnXXIRKGXwfsajzjdS8rTphlrKU0j2c0Qi3V8cu1Kgv6nArliav6pBYfxkiCfKahKVuOV84GdLRDWwcjLUOyuMyzufr1HoWglwitRyBaPyLGQcAACAASURBVIpavUDVB5gw7DQxHA9Xb9F2wfd9HMunqH+O5Lzfu22MWMunKVsCYgV8H9KNFznLVXTcb2PoNq5j0OpAOnWzXzjHHFgowve2B1s/qhiD7wd+EAS+5wX73sZ3A9uyA+eg0d79rfe0g1qpFtgbH3h2UMuXAvO27rHXdbN87Fce8xZBOHahiMAPXMc9WBkdkHmX0VniZIUi/MC1j1cE5GaOSyjilvbjIO3JHAiFIhaXsycUcbP4wlHFGCKR2Sg7eoC7RGIsr9zG9FAkuuV4lYgsuVjOhOXlKFPXxpcPcExo2z32um49H+dcnOJWIsSWFmzKLuSYiBBbXjkTG/MiN7cf0QO+tyEhC8b5VG3aRozMU08zGfXpdn0ESeOpp+8stxkSEhISstjcAc54RnQpTnJR175CQkJCQu5o7opEIqFq0ynw8ssvzzUw/mg04q233ppb+gdh3mV0lnjrrbcYjRY0IscBePnllwmCYN5mnBrf/e53+c53vjNvMw7F9evXefXVV+dtxonx6quvcv369XmbwV3T6TRUbToFHnzwwblKxi0tLXHPPffMLf2DMO8yOkvcc889LC2d3ameBx98kLe97W3zNuPUuO+++7j//vvnbcahuPfee3nggQfmbcaJ8cADD3DvvffO24zbm6Ye91voeg9bVEgoEoLv4ToWnlrmqZTIsGOCdrSjPdNRh0bTQVSk2XESRca1fFZXk4e/6bEzYdCqUrM0ak+nTmnjVqjaNA/uRNUmpmMGPQvXF1G0OAub7emQTtPA6LnImoosgO+5WJZI/pk0tA1Ms4eraKTTWRTXQNcNLFFFk0XwfQQlvakyd2v75uM6PWypwDOrK3PO7G6Eqk3nhYMF/VgnFs+hiSamp5HLZMjkVrlQyoNtAx62YRxJuWg6vEq2aJEoXSCXyZDL5VDtKhV90YJrzNSqfMvZO2jPMRGqNs2HO1O1acRauYmfSJGSTQraVYb7/2g+RJZJrcq4TRs5O1NYyq1epKi6WKMYK5k0omXgKTmSSxFi8QxpyaKHRi6XI7eaRain+eR63Pxb27ccF54qoboWixlKI1RtOk/cljPeZGNANJkwjcRJqzAhRuaZZ8gdeuZsRKNYQyqVWNnSE4/lKhQXMALdaQ5PQ9WmeXAHqzYJ63HmJAnBsbaEpF1gIgBTJhNYyiaQPQBhT2E4iJLQJHrN3nZnu9G+jceMWSKbkHeVeZ0voWrTeeIIu6mnDJo6/oVV4skkjLpcLlUQK1+jJLQplxoIxQKS0UQofZELYoerTR81AXZPIHsxtf0c48Sk2ZMp3BLreIVCSSbCTDmpVPPJllSshkv+i0+hDlo0bAlV8rFt0C6kWGJE+6oBiohjukiqj/dj/xvi732GplyioAhgGzhalYvxCIzarPVEZMGm5ygULyYRhjvkQR7SbvRAURA9E5dF7CWcAjerNq2ehROpt8tMtUkV7jTVpiVyT18AJvTrBlK1enYiOk0MmkaCC7kkyYPMKk+HNA0oVbLb2iLfdRmPBeyajv/0RVLJJIs5ST1TbRJisKnapIX7f84qhxoZez2DVqtB3bBvTNMuJckrAq4PkeUMWdnBFdIUKzWyy2NaxRpkMyTjGdLUqfZvvqmHv0tPNra+GHmLctK0S7lskcgliSdT5GWd4tUhdCtU3QSZVA7Va9KTn+LCzz5GLivjOCLpTIpMWkBvWgBM7B49FJKZAkqvSnO8Ux6m9MsleonVmSpUOsGChuw9NULVpvPKlPHAwhVkRH/Rloh2wsVstVirN+kdYN3Ity36/S6tSpWeVqVyc4xLz8VxbJwzcMokVG06PxzKGYuJNLncBWqVPLv2wwQJRY4QicWIYWP0fHynT7/fx1XypG/+4ZKKKjnYzo2Pxv02a5/+CPd85NN0RutNwhblpIhtYPrypg0RScAxekxkDdm1mTDG8RW0LQNYUZZuzDD7szc3msijeQbtbg/H8/E31j9vyoNugiJvyeJtldp5I1RtOq9MpxFiK0kyF7JQzVMZzNui/ZDQcjlWn6pSUvd/KwVFJR5Pknu6jFIvUBvu9H2K1UphNvc17tNd2IVzQtWmc8Lh1ozXiayssLz/ZYBCQhUQlTjxeJx4SuPWdyZJuSxhNPqbPfFYPEM+LSPIabTNLZ1bZBdlFQVvc1PT1PUQFYWoIJHPKlhdh0Tt82T2bEQntItFrMQqmWQCWQSfIcNbll5kVNlna2f5NDZvLS6hatO5pP9pFPUSM/8rgODhnpnNeUusrNxOj0lEFB1Ma5edAEvLLAFj08Jb1NnfULXp3HBbzng8aKP3PDxTp9UZbN/MMupiWA623ueVUQfDcujpbQYTgBgX6gWc2hrdwYB+28LdoQO7dEGnLjcoXl6jPxozGnZpOjJpRVhPQqfnWDRb/dmGi2iOWgkaa10G/TZ1M0GtEgdRwKyVqNVrVIqf5kpryHQ6pGPYuD2D7mhE17BwbIPO6G1IsoRr9Rn0TTxJxNYtXnnt5jxEydVKeI01+sMBXd3EsQ2a/ZOv/NNRl3bTxHFNmu3uDS3neXKnqDaVy+QTj/DIQwplS5z/sbKTRi1SK2swGjNs1bHVGpVFOlW4lemQ7tqGIlOb/mhrV2nMoD1TX7L1Ft3RdNZ+mS5eT6c9GAMxEmkFxzAZdTvof9pCN11cU6fVbtNutVi78iTZmo20kLMiM9WmYrmA9sgjPPRQHv2MLxqN+23WdBvXMm71MeedA6s2HRP+gaSevMC5LdUYP/C23LdXLQUN58a9euVCULX3NezAKlS+72+meVAL561IFKo2nS9OQ7XJOrBM2u1zXKpNx4HnnKxCVRCEqk2LzNlTbTomItGDjC2iLC3fzv7FyDbxJ0kWMO0R06UlIhMHB5XEftNMt6G6FImsqzovZG/5tAhVm84vZ0e16TiILt1BmrkhC8u5FIpYyj1NaTzE6nbxRZn00xfDly0kJCQkZGG56+GHHz6XQhGR2DLxZJLkytJCOOLBYDDXWLzf/OY3eec73zm39A/CvMvoLCEIAi+88MK8zTg0L7/8Mh/60Ifmbcap8Td/8zf8+Z//+bzNOBRvvvkmf/VXfzVvM06M5557biFEdO769re/HQpFnAIrKytzVal57LHH+Pd///e5pX8Q5l1GZwnf93n00UfnbcahefDBB3nllVfmbcap8VM/9VP83M/93LzNOBTvete7+NjHPjZvM06Mj370owshonOkaerJoE2jaeCICbL5PAl6NOpNLFTShTyZZRi06jR6kCgUyd3WsYMDW8Gwo6PrPTxVIyGB73n4Upp8aulM736dDPtYjguyRnIzaPqE0cDG8QSU5LzW9SYMuzaCoiD6DrYvn+Og7lPGfRs/vnLnnOFcJKGIcZ+1RpOeK6Pl8+QUj3ajgeGIqNk8heQSXn+NRtNGSBcoppaJMKH9ZAm2HGuc9teomD6KLIJjYSOjyiKeY4FWJouxh0iEvK2NUWcaE8hadkHEQxZIROaoLFLdO2WOdM44upIhK1nojkJyKUJkKUkh4aFbItpylA1BhYRW2MMRD+h2j7KBPcpyKovsmPjqRrD4PFIzTfraIeK0jrp0FyC867R7hYolk0xpeJUNkYIJncsVLDlOUnWpXWrNKYC9g14pkNbS5KsWwmKe+zg6kwGdVp1ioULv3B8w3mDBhCJicVbTYJo+ajwG0WUyeQVbt5ETs852LJ5FTWgUUuvOaGKimwZ140a74tgeieIFVnM5EhjoXoJcLseFooZvu/uIRMzaGMkx8NQcuVyO1byMnk9wuT/firFwIjJHYsHq3ilzJGcMsJTNI5lNNqJb+oKIaDXZfA9sH0nbffw27TdpOscQPmPbueUoakLEMu3bDtIw0g8WUu/EEUQEfCCKJPnYtgejJlU7QToKRFNoXp3GnGqrUjJ48cVv8JXPrXIiEx6LQHSFVC6Ldq4Dm9zKwglFrBRI+zqbGgi+gIRJc6OHNLVB1jb3hkx6PtmKhtXQN8+p+pKKtqWebjYXUQ1V3uLGDioSEYmTlh0M0zly9o7C4onIHI2Fq3unyJGdMUtZ8qJBsw8wwSJLRbNornvjgSugRpmJMbS6dNvXuHK1O3tJJn0aNR3T1Gm11wN5jDtcvdqm229z7WqHMWP6V5/gk09eo9O6zBOXOrscBPfxvQmTyZhRf42KqVKvpojs8Ptvd6/wqY9/mg4wGazx5Mc/xdoYJoMW1YZJz2jR7o6YApP+Na62uvQ717jaOj3PF4lf4OncEtNRm6abpVpYAqeHI9wIPCGKLpZ9aiZtw3csuv0+3XaH4R0zarwTmAlFxCMT+g0DqVpZAKGIFfJpD33dG48dkWJZxmz2mAJTy9sSlnWC6Umk8wU0u4m+PnW0kkruspEzQjJ5I+b4TCRiRLfWxAKiu4hETEctml6eSuFgMQhDDsIi1r3T4+jOmCWyWRGjOYCJhS9qpPMqVtNkwgBXUImysxgD0TiFvIqcyJLLxImxk6BEjHheQ7B9lFyZWlnb+aXywfNcXNfDQ0KVBTxvAtz6+4eTeTTBm407V/KkpY1/58gnJBLpHJnkEpFph1LZnglRpPJIepX2aTqeyRDL9pEkcRZG2/NvCYjt+/PwhDJqWiMZj5NULErF3TpIIWeTxROKiOfTeE2dEWNsXyaZzSMbTXrTKZYnsumLxya+lCAS0ShoNg3jNhdy9hSJ8HGtPv1um3rFQKlUydwph7FPjcWre6fFMThjWMpmEYwGXctHVCNEtTyq1cDougjKzHXuKsawjT0EJWQZiSix2C4r+oKAJC+zvLzMSjzFhTzU8hU2Y9zv9/sdzTGxPHD7ffp9GzGbPT3RxOmUaXSZeCpHUTXJF1tMRHG7L/ZBmEc8yrGDt2GJrCAYTXqnb0XICbGQQhHxPGm3id618OVliGXJywZNs4cnqpuzReOeg+MatNsGnqRgN/Tb2lext0iEgKTGiSczXKxqGPky3ePMY8hi1r1T4licMctZ8oJOubfeQ42myas9Kk1Q1rU29xVjGHfpDvcWlLgdtzP1/FuEHG78XkDYvK+Ht+1CAXyYdjv05QSKICDHZ/akTk02ccy1tES2NblhkuvhKQlkz10fhU5xPYnEHCSVJ2aNas+Z/eG5eKK0u3pXyNliYYUi4uTTLvWqi7QMECOdlTAqBsKNYTE9P0EplyGTyZCrlMk6N6aqb4v9RCJEEdGzsBZgs+e5YWHr3ulwPM6YZbJ5GUXd6KFGSecTyKq6fvRG2FGMwRUgoqaRegbdnoco7yQoMaavmziOwdr6Ou52Jgw7TXTbxdJbtNstWmtXKNV9ys0qK+z0+xgJTcDuDhkOLBzfxWjO1qzVtIxtdjA9ATmaoVYRaV7rMBj06ZjO7fUIDk2MbKVGXnIZj7rUm1CqFViK5Wfr8f0x40EDU61QmMN5m2i6REH0GI2HdGo9EvXygoqvH5HJkE6riek6GM2bhQjOKQssFBEvZJEUZbOuLWXzKHJiNgCYDmhfLlJtmFjrzndiu/iiRa18jc5wCtMR/XYL3fRwrSatdpeNRzru7yUSMWtjTMfH1lv0R0BEJZtwMc0Rg06XefnkhRSROSwLXPdOhWMTivC9wLv575tjr+8mxrDD5wcTlDgavucFfhAEvu8F/tbk1j/fcuWBRSR241AiCJ4TWJYd3BzD3nftwHZuz6BjF4rwvcDewbajEApFHJw7UyjCC7ztjcxNf582fuBaVnCQYgqFIg7Kyde9mzl/QhE3Cy3sJLywmxjDDp8fTFDiaEQ2lB4iN6Uejd40AI5wCubcSnSJlR2GnJHY8gF1pE+QSJTlc3um6U5nUYUiojeJs0TmLNYSIbbTCxpyBBa17p08xzRNHRISEhISEnJY7vqP//gPXn/99Xnbce7xPI/vf//7d2z6B+Es2LgofP/738fzzu7ulu9+97v88Ic/nLcZp8Zbb73F9evX523Gofj3f/93JpOzvBi9N5PJZCHi9t9111138b73vW/edpx7RFHk7rvvvmPTPwhnwcZF4e6770YUz25osPvuu4+3v/3t8zbj1Ljnnnu49957523GoXjnO99J9ByLt0ej0YVQtDv6mvGoS0s3MB2JREJGFHw818FyFEpPZw4dXH/cvUqlIVD8/IU9d+qOB230poElqmiKBL6Hh0I2Fz/z6w6hUMQiEApFzD1Y/+20McMrPKGn+eJTW1qNUZ+WrmM6IomEjICPLybIppaJMqJ9pY4jqUh4OJaDoKpIuFiuTLGk4OgGhukiaWnS2QT0dAzDxJU00uksyeV5F1AoFHEeOIZwmElyCQ/DEkjnMmQyOVYvlCiINtZtnQSZ0u30N/+KJbMobm/nuLBbiK1kSEsWFmlymQy53CpZv4L2RPsQIgpHFa04PkKhiAUgFIpYjGD9t9HGDAwds9FgW6yIpTi5hI9pS2RzOXK5VdJumcSnWoyxcYQCF1dz5FYlrIaNlM+RW71IQXSwWSaZk3GaNnI2yXIkwnIyh2w3seXc3B1xKBRxfjiBDVxjxpMIK/kE4n6edCsTk6bhHj782ZbgIDFVhZ5520HGj0204jgIhSLmTygUsaDB+ndrYwbYUpmSYNDo7/bbGTEtgWDq9L4joGg7n01Y1lSErc3BVr8r3Hz1fAiFIs4Px+eMfQ93PGbYbqDbwFKS5BI7CkRMh20uPf4pLrfbXP30E1wbjunWaxg9E73dYbA5OPWwO23anTUuX2rtebDedz0mkwnjYZdrNYdsvUx8B5GI74w6XH78k1zuA+MuV5/4CE92pgcUrTg9QqGIkPmwwMH6d2tjNhjYoGbIF0SM5l7eeEK/2UOulEnfnyS12zrYcpLkZkfTxx2NGY/HjMcjzvDeuQVmgeveKXCMztjFdRwcx9kWhnIngYjIcoas7OAKaYqVGtnlGMlCFkXWyGZSN0ZavgdKhkwqj+o0MPeaQfZdXNfF8wUkVcL3PKY7iETcv5QirzKzMZYkq62LMBxItOLYSutghEIRIXNhQYP179LGbNC3IbE8i8wl6g1ueV09i16/T2etQs3JUyuu3MYaq4/nztqYWTtzlIyE7M6C1r1T4PiCfogKajxOTJWYyYMO6fZFkok8WtOg3ZVxPB88IAYIEoocIRKL7bEJSULe7Pn6605z5ysFWWF5eXbxsuKhywXqiW9wUWBTJCKyQ0K7zzbNRCsUp0/fBbaKVpwGm0IRyyju48hFGae0SEIR60GxN4UiUndUL/Y8sxmsf0XAfChPJfEiTy9CbIvd2ph4DOhjOT5iu43lCyiiQaM7JZ7c8n6IKol4nGg8jth7iEJD42sXDroFUkSJr2xuJnXCYOwnwsLWvVPg+NeMI0ssx4BRD8cX9heIuIUh3e4RJ4R9/5bNDNtd1g2X5u0gKHEQ0YqTJRSKCJkTZyFY/7Y2ZuZMp30HqbBKLpMhk7tAtShjrOsd74Qoi9g969RMDjkAZ6HunSBHd8ajLq2mheeYNFvtmVDDtSs8kW3gyTsLRLzyWgfDcujp7RvrwzGNNOZMIk2KMe7r9FwHoz1gNNAxHRdT79+ybjsetGmaLq7ZpNVu02pd40qpiVRrUFzaWWRCSat4vT7DYR/b8XF0ncHkIKIVRy6tAxIKRSwEoVDEYgTr37ONgXH3GsVSDb03nL3j0xG2J+DrFSqtPuNxn5a+/vvOkAkgJzREy6A/6tDpT5kMOrTXDGwcjEabzmC9pZkO6W58vtZlOJky7K5h2OAYa3TnvGEiFIo4RxybUMRe7CYQceuFpxf4fcOmm207IdGKUChif0KhiINzZwpFHDOeHVi2G5y8JE0oFHFwQqGIk2U3gYhbLzy9wO+bNu0vcHEaohU7EgpFhMyFOyRYf3T5/B7LO7PcIXVvB0KhiJCQkJCQkDkTOuOQkJCQkJA5c9eP/uiP4rq3Eyor5DAMBgO+973vzS39b37zmwuviDTvMjpL/PCHP+SFF16YtxmH5uWXX+a+++6btxmnxj/8wz/wrW99a95mHIrvfOc7/NVf/dW8zTgxnnvuOV577bV5m8Fd//RP/4QkhQdTTpqVlRV+5Ed+ZG7pP/bYYwuviDTvMjpLvP3tb+fRRx+dtxmH5sEHH+S73/3uvM04NR566CE+/OEPz9uMQ3H//ffzsY99bN5mnBgf/ehHef/73z9vM44x6MeRmTDs6Oh6D0/VSEjgex6+lCafWjr7aiS3wXTUxxbirGzsYhj16foyqgSu7SLG1zc4TEcMLAcPmUT8JMtoB1WYHdOeMh5a2K6PpCY5O0JOO6ne7K+ONR0PsGwXX9ZInmV5mfGATs/GlxKkd6xHC/pcp0M6TQOj5yJrKrIAvudiWSL5Z9LQNjDNHq4yU1dSXANdX1d4k0XwfQQlTSY+e7rjfgtd72GLCglFQvB9XKeHLRV4ZnVRDu/tVy/PkqLaTopoO+fv3Lxre7BAa8ZRllNZZMfEV3NkMjlyq3mkZpr0tT2jhJwjxvTbLWrFAvUtMacnvTrFrIaWLaF74roj7nOlbCLGkySEJqUTKqMdVWF2SXvUKtNwVZJJBatymQURwNqTnVVvDqCONbxKqSmgJlNIRokrgzN6BnncpWUJJDJZ5F4R7XL/lkAZC/tcI8ukVmXcpo2c3WgzLlJUXaxRjJVMGtEy8JQcyaUIsfhM4a2HRi6XI7eaRain+eS1mdpKLJ5DE01MT1sPHpLjwlMlVNeakzrazRxEte2MKKrtqIi2S/7Oy7u2DwvkjNfZFlgjipoQsUz7DolRGiOeyaEpN8kEiVnqL77IX3/tizyVmvUhJ3oVU0mzBERWNIRm7dZYvMfATqowO6c9oF73SSQjQIy0alPVF6MJ24sdVW/2Vcea0q3piNpsJL2cVjBrxpmsoxOjSkV3EYiwUsgjNuqY2644I881AjBlMoGlbGI9XKawj7pSlIQm0Wv2tju1jddvPGbMEtmEvK+U66lwQNW2M6GotpMi2o75Oz/v2n4snjPGx/cmTCZjRv01KqZKvZqavWuTPmvX2nT7Xdpra3THzHr27T6DQZ/WpSt0mDLotOgOBgy6V7l8HkbVvovV7dPvdmj3Z82GYzmwITeGiOTb2Kc0Ytkx7e/Y2K6w2fZFJQFnI2TmWWNfdSwX2/YRxc0LwLbPpNxbNN/ArCZneXVtXEnZ3jGZnqHnOjFoGmOIJkkeZFZ5OqRpQKmS3Tbd67su4/GIbq2JBUSTycWIMHdA1bYzq6i2Y/7Oz7u2Hwu0ZryOD57n4rrgI6HKAp43gSVoF6v41S/PZNMUhycKLf6XgknTKVBPx1kpCgxx0BsmSiVNMpm/0cs9w0RVjay0zFJkSvvJLFfFr5Dw/RvanwgI+DNZt1PoCfs7pf0dHx9h20DE98+otM2u6lgbzYSP52/PK563o5LQwhOJEYsAjGlVLfJ1fXtAGf8sPFcXs9XCc3R6UoIL+1zt2xb9voujN+hpVerJm14az8VxfBzXXayY6/vWS5gpqsksL0dheIXHi9D8fOo0moWjs2P+/vX8vGv7sHgjY0FAkpdZXl5mJZ7iQh5q+QoDLIyegLSx0h+VECydv82UKbhVsolH+HjFApYpllT0ksYjjxRoeguiAn5opgxdHyECEEGWXJrGCEEQtjSKswZTPKWOx45p3y8icEN0Y+qDIJ7Rshf3U8cSEbeqzvs7/OZMMWXYauAVmzwVv2lzjHAWnquElsux+lSV0gHUXARFJR5Pknu6jFIvUBvu9H2K1Uphpk027tPdYTr41Nm3XrKuqLZ+1aai2hlhx/zdf87etd1ZPGd8E9NNVSUZVfbwNhZ3Jh6epPK+roVY+TLf+OsXaSZMGoMhppfm81/5a17slfCaxhnX2rXQq83NKWjPm+kbKwmFGwrnLo6gop5S93fHtO9XSEge3vq0mOd6s+vOIruqY02ZTAFiqKqAs7GQ6Nr4amL79O4ZYtzVcdQSF+JRJt3O+t6D9bxGztJzXWLlthZJRUTRwbR2aSGWllkCxqaFtwhD5H3r5RlXVNsxf+frXduLBXLGE4adJrrtYumtmTLL2hVKdZ9ys8oKS1yoF7AbLfqDPq26RbZe4mHXoNHoMxwNcQSNrOLRa9TpDIYMbQ81nTgbUzQAjBl0WujWehn0x0CcfEnFd0aM+tdoUqaaixLJVMg6TbqjMcOWgVgqnci61k6qMDunvUyxLGE0h4zHXZp2lkp28Ut+R9Wb3dSxBhW09DVGQLxUBL3NaDyi0/QplJNn8vjdtH+JdL5MKavyyCMPoVYdZGB0LY1WGcAiP9dtiko3q2qNGbSbGI6HrbfojqaMB21008Xr6bQHYyBGIq3gGCajbgf9T1vopotr6rTabdqtFmtXniRbs1mITckHqJdnRlFtJ0W0XfJ3Xt61fTkV1aZj5lYVJT/wPG+7+sqBlaJOh6MqEvmuHVj2/9/eHcO2bW0NHP93EoECFadP3MTNbIFCfF3ETiLwAZW+idqkTnEn601RpzibtrhT5Kl2lyrTk6dK05OyhByKUlPpokDpjeoDCupNVJeSS/0NtmtZsmPXcSOnOT9AgC1dXZ5L0jq+l7TP0hiP0+M4DI9vUuDkzqs2XbXtJDoOb1kJ575Vbbq2OlaaHIdhuJbz7K+t2nSJVziul7kXVZtOJVFwHN5l+bFL3GXVphudl3dYUe31Vm26Ynx/4c/a21W16Y6tVlHKkV9+7saVot4MucLG+T8BOX+Wwsa66jddse188f78U4hXdG11rFz+5EaZt8Hf6LguyxdLb9RnxY3Oy3v7N03Xu3R8b8HP2j1aphZCCCHeTu989NFHxx988AHvvvvuumP5W/vll1/48ccf+eSTT9ay/TiO+eGHH9a2/ZtY9z56kzx//pxSqUSh8GZWfv3111/xff+tOdbffvst7733Hh9++OG6Q/nTnj9/zsbGBsVi8frGb6Cff/6Z3377jRcvXqw1jne++uqr499//32tQQghhBDrYpom5XJ5rTG8k1vbvQAACRVJREFUc3x8fLzWCIQQQoi3nFwzFkIIIdZMkrEQQgixZpKMhRBCiDWTZCyEEEKsmSRjIYQQYs0kGQshhBBrJslYCCGEWDNJxkIIIcSaSTIWQggh1kySsRBCCLFmb2QJRfE6ZUyedXBTA11VSCKfSDExNYUkCsDaZquyptJms0PGfkiqWtQqxVcoOD7Fe+aSqCqgQJygbTW4/X+qzTgau2BX2bhRUH+2/R3Kjhh2d3D1Dk8btykEMOdw2GfkBiSGjaUppGlCHAQo9Q5b5dd5bkzxhgmm82aVRBQCZGYsrhUTJhatrQc0Gg30oE+gNWk0Gmy1a6RhtJ6wpmOeBQqWU8eMt7E/PWB22672d/DNBziOg+OYpK5LfPra3PM4vEEfF9slhKMRQXxV6wxvPFn4/rr2f6HcBo6tEkbpLTvIU3LqaMGIxGjgOA6NxgMetm2iILrLSK83j/BHAevYjUK8KknG4hoJummfzzQUUM6+zlmY+tmHeMb48WO87Pyd2dRj97PP2B16eN6YZ/sHHM4BZhw++5xPP9/Hm87P3zA/5ODxZ/xzd4jnjRkf7PL5rsdCl3+YDnbouil5chQbbUy/S396uxFGQUCUnG2lQL1VR+UkzlFvRHJtD8vtCjhPn3LlRHPu0h/FC+O6pv29t3hSwHw2IyvUqOm3TfC3lK/w6MsHq4XphXgDyDK1uEaJSuWq13JUqqeLuXOfKHQZDeZUGiepO1e00JIuqV2hkgcr+RSro/P90zIlAyLfoFJcWFDMl7C0kIHunG6zijYcEgPLearY6jNKT2v5ziNidGra7UZoNS1aTZP/q9Wp15vUnSoVMqbDHfbcAOtgSGraVDfyzLxnuKmOGvsEapNHjrbaTgl43O6gdl7wqDRlfBCiGhoEfXyjjel2GfkGg6GCYVcpJd5Ce5h5u/RCHVMHJY2JtC1q6Re0tiNa332JdfiMdmuAPfiGB4WMw2d7BJqFHvtEZosHms+Br2DoEPZc1KePqC4Pejpm300xdJXUDzlLm/PJPr3IwFJD/MTmYUNZiv8JDy9dv09JkimzaUy/H7H5qEGlWiabjum0uqSbLWwFYtdH7zyhqhxx0G7R19tsGgqEIyJ7h4flHMzG7PZTTAtCX6He0nEX20YukVHHSBPSeISvb/OkWmA22aXdjmh99xRzMsRFR1diRv2E1pOGLF2Le01mxuJOzIIUq7tJ2usvLRenpPGM2XTCwFVoNo1r+0qTGbPDffbHGaVajUtzbK5AIQ+QMdnpo3a7OMvXW7OM+Xy+9FidZ+cqT/HdHepazKBTw/x4lyNyFJ1NLN2g1nCobpx8lEe+S6JXqD6wiLp7HF7WrlihaSjEKTA7mQUrukG52cTWClQ26xi6Td2pUspzsf10n80ONLccqtUajHr4KRQqTWwlIQXypSY17eRrDju0XINmtUylaeDv9PmP36cfgWaUabRq6CsjPuKL1gC96VCpVKiap3s4G9PeDrEaFcrVJtpgh+F/luO/6qBBGkdEUUS0sE6cK1ZpmjERNo7jUNN9ei6Q26BR14kilZpTxakpDPoBMOOg1YW6Q6XsUGOPnWCprQ29bojlVHHqBkHPB6BQbmKrJ/sl7PfwUxWjVKXZNBcn7kLcS5KMxR2Y4kegpCZ22qN/tPhaSpKmpKmCaqjE0RWLvtl5kkyTmDg+TTbX3NA0HXbxa3t87RRWX0wTkmT1sZyOp9Mp+Q2HrSdf8+/vA/b0HnuT1e4AzHodxR8y9sKTcb08PCg02bZ9tmsm79f2iK7JCpk/IjTM05WAHJquvrT9zPdJSAgmEyaBQq1p8J6zzWa8Q916n487wSVvchklOvrZvlVOgwpdggTiyYTJJESt1zH+54bxKwqaUaFcabDdslCAbHJ2HV1F1/MLmzo/AqqunR/iNAVCRn5KGk2YTCbERvOPFY/Ftqqun89003TlmJa326h7m1jv/4O2+5qXy4W4BUnG4tUdhWAaqKpOvaUz6C3c8qSoaHqR4kaJat0g3OlztNJBhjdy//hAVfUSpWqblp0j80a485U3ADDzDgiMNg8rBTj08Jbb5QsUi8WlR2Elv4eDwUJMBUzLOE0aCupp8pl4Hhke7c0BWtOhWjHRFODoiOlKu8UgXULzS/793U8EOyqDCxe2j/C8i+sIOcNAjWPOhpImZ4lE+SNnQsLZ06phoCoaZrlMuVyhZun86gWonW/47vuf6FsuveU70FQDg3j1WrhuYSgKerlMuVymWrNQ//uy+C9X2CiSI8MPY17+q8RlDCxTQTVOYihXbcxbTGsnfkrrXy/4/qcRzaCH++e7EOK1kmvG4mbmh4zdgEGYEtFjqFhYTonCzOOL7T5a92sKBVAMnXS7w35zj001wA8jUtdDV1OikY/R6bDBjEM/JI58xh6kYY9uuMkL+wjXj4miMZ6qQBLS60W0vnFWw/H+Sa05IlU7bJOSUqf305UXt18uHNHd1WjWLPQ0oJ82aZcAdGwzYTAeY2JQJsXQUkL/EDWNUNSYgR+xuWFfbDf1GAURIRNmrZDBXoLWtlBinZqtQcGmxh4DL0XVGrDY/sk2e/Y2O0ODTS1mFCRQAyhg2Qoj7whDjYjSmLA/of5wh52gQ3eoUNNSInTseESvp6HVVGLFpr58ZSBXodPx6e57KLZCNAqJ/B5e8wndTkh3fwyWShyBaV4S/8UjweGwxyhMiAYHDJPTP23ye+wl20xsj34QEzDmSFNx3ZhIHXH0sUE0ComjEd5UgVFAFMJ4arG1t8nj7jO8pokSxSgf6wQrbVPGRzqq6xJFKoPDGnY6wI1CtPGU/3V7+KpOXYtJ7Rrm7c4MIV6bd46Pj4/XHYQQ65RlGbkczI5CYnSMjfyF2XM2z8jlc4tPkOXyKzPslXYXXptDfvE9GfN5jvxVdxVlc+YoRJ0ae7UXfFm52A/ZHMiTO+swy8jInX9PxnyeouRX41zYCPMsRz6XcdJtbun5l8X/13vZ/rxhB8xTZWFcQtxfkoyFuK/mUw5aNfr2gN7WhtwNLMTfmCRjIe6r+YxpkgIKarEgyViIvzFJxkIIIcSayd3UQgghxJpJMhZCCCHWTJKxEEIIsWaSjIUQQog1+3+2m2fZeWsp8wAAAABJRU5ErkJggg==;" vertex="1" parent="WIyWlLk6GJQsqaUBKTNV-1">
          <mxGeometry x="50" y="490" width="483" height="149" as="geometry" />
        </mxCell>
        <mxCell id="WQaWYwOavrE4UbBEG4pA-9" value="Tower" style="swimlane;fontStyle=2;align=center;verticalAlign=top;childLayout=stackLayout;horizontal=1;startSize=26;horizontalStack=0;resizeParent=1;resizeLast=0;collapsible=1;marginBottom=0;rounded=0;shadow=0;strokeWidth=1;" vertex="1" parent="WIyWlLk6GJQsqaUBKTNV-1">
          <mxGeometry x="520" y="40" width="160" height="84" as="geometry">
            <mxRectangle x="230" y="140" width="160" height="26" as="alternateBounds" />
          </mxGeometry>
        </mxCell>
        <mxCell id="WQaWYwOavrE4UbBEG4pA-16" value="int : cost" style="text;align=left;verticalAlign=top;spacingLeft=4;spacingRight=4;overflow=hidden;rotatable=0;points=[[0,0.5],[1,0.5]];portConstraint=eastwest;" vertex="1" parent="WQaWYwOavrE4UbBEG4pA-9">
          <mxGeometry y="26" width="160" height="24" as="geometry" />
        </mxCell>
        <mxCell id="WQaWYwOavrE4UbBEG4pA-10" value="" style="line;html=1;strokeWidth=1;align=left;verticalAlign=middle;spacingTop=-1;spacingLeft=3;spacingRight=3;rotatable=0;labelPosition=right;points=[];portConstraint=eastwest;" vertex="1" parent="WQaWYwOavrE4UbBEG4pA-9">
          <mxGeometry y="50" width="160" height="10" as="geometry" />
        </mxCell>
        <mxCell id="WQaWYwOavrE4UbBEG4pA-15" style="edgeStyle=orthogonalEdgeStyle;rounded=0;orthogonalLoop=1;jettySize=auto;html=1;exitX=0;exitY=0.25;exitDx=0;exitDy=0;entryX=0.981;entryY=0.068;entryDx=0;entryDy=0;entryPerimeter=0;" edge="1" parent="WIyWlLk6GJQsqaUBKTNV-1" source="WQaWYwOavrE4UbBEG4pA-12" target="zkfFHV4jXpPFQw0GAbJ--13">
          <mxGeometry relative="1" as="geometry">
            <mxPoint x="480" y="130" as="targetPoint" />
          </mxGeometry>
        </mxCell>
        <mxCell id="WQaWYwOavrE4UbBEG4pA-12" value="Ennemy" style="swimlane;fontStyle=2;align=center;verticalAlign=top;childLayout=stackLayout;horizontal=1;startSize=26;horizontalStack=0;resizeParent=1;resizeLast=0;collapsible=1;marginBottom=0;rounded=0;shadow=0;strokeWidth=1;" vertex="1" parent="WIyWlLk6GJQsqaUBKTNV-1">
          <mxGeometry x="520" y="240" width="160" height="110" as="geometry">
            <mxRectangle x="230" y="140" width="160" height="26" as="alternateBounds" />
          </mxGeometry>
        </mxCell>
        <mxCell id="WQaWYwOavrE4UbBEG4pA-17" value="int : speed" style="text;align=left;verticalAlign=top;spacingLeft=4;spacingRight=4;overflow=hidden;rotatable=0;points=[[0,0.5],[1,0.5]];portConstraint=eastwest;" vertex="1" parent="WQaWYwOavrE4UbBEG4pA-12">
          <mxGeometry y="26" width="160" height="24" as="geometry" />
        </mxCell>
        <mxCell id="WQaWYwOavrE4UbBEG4pA-18" value="int : reward" style="text;align=left;verticalAlign=top;spacingLeft=4;spacingRight=4;overflow=hidden;rotatable=0;points=[[0,0.5],[1,0.5]];portConstraint=eastwest;" vertex="1" parent="WQaWYwOavrE4UbBEG4pA-12">
          <mxGeometry y="50" width="160" height="24" as="geometry" />
        </mxCell>
        <mxCell id="WQaWYwOavrE4UbBEG4pA-13" value="" style="line;html=1;strokeWidth=1;align=left;verticalAlign=middle;spacingTop=-1;spacingLeft=3;spacingRight=3;rotatable=0;labelPosition=right;points=[];portConstraint=eastwest;" vertex="1" parent="WQaWYwOavrE4UbBEG4pA-12">
          <mxGeometry y="74" width="160" height="14" as="geometry" />
        </mxCell>
        <mxCell id="WQaWYwOavrE4UbBEG4pA-14" style="edgeStyle=orthogonalEdgeStyle;rounded=0;orthogonalLoop=1;jettySize=auto;html=1;exitX=0;exitY=0.5;exitDx=0;exitDy=0;entryX=0.994;entryY=0.077;entryDx=0;entryDy=0;entryPerimeter=0;" edge="1" parent="WIyWlLk6GJQsqaUBKTNV-1" source="WQaWYwOavrE4UbBEG4pA-9" target="zkfFHV4jXpPFQw0GAbJ--13">
          <mxGeometry relative="1" as="geometry" />
        </mxCell>
      </root>
    </mxGraphModel>
  </diagram>
</mxfile>
